<?xml version="1.0" encoding="UTF-8"?><svg id="Layer_2" xmlns="http://www.w3.org/2000/svg" viewBox="0 0 483.12 120.75"><defs><style>.cls-1{letter-spacing:0em;}.cls-2{letter-spacing:0em;}.cls-2,.cls-3,.cls-4,.cls-5,.cls-6{fill:#2e3191;font-family:CampaignLight, Campaign;}.cls-3{letter-spacing:0em;}.cls-7{font-size:50px;}.cls-8{letter-spacing:0em;}.cls-4{letter-spacing:-.05em;}.cls-9,.cls-10,.cls-11{fill:#231f20;}.cls-9,.cls-12{font-family:CampaignBlack, Campaign;}.cls-9,.cls-12,.cls-6{letter-spacing:0em;}.cls-5{letter-spacing:0em;}.cls-13{letter-spacing:-.05em;}.cls-10{font-family:CampaignRegular, Campaign;font-size:24px;}.cls-12{fill:#be1e2d;}</style></defs><g id="Layer_1-2"><g><text class="cls-7" transform="translate(.5 42.5)"><tspan class="cls-12" x="0" y="0">A Mericka</tspan><tspan class="cls-9" x="284.15" y="0"> </tspan><tspan class="cls-4" x="297.05" y="0">V</tspan><tspan class="cls-5" x="331.05" y="0">oi</tspan><tspan class="cls-3" x="375.2" y="0">c</tspan><tspan class="cls-2" x="405.04" y="0">e</tspan><tspan class="cls-6" x="435.24" y="0">s</tspan></text><text class="cls-10" transform="translate(.22 112.06)"><tspan class="cls-8" x="0" y="0">Adam Mericka, </tspan><tspan class="cls-13" x="192.72" y="0">V</tspan><tspan class="cls-8" x="209.52" y="0">oi</tspan><tspan class="cls-1" x="231.67" y="0">c</tspan><tspan class="cls-8" x="246.33" y="0">e Actor</tspan></text><path class="cls-11" d="M463.77,48.69l-.83-2.32-1.4,5.05-3.43-6.19-1.02,7.2-1.65-7.33,.76,13.52-3.17-9.09-1.27,10.74-2.79-2.27-1.27,3.54-2.92-5.81-1.14,6.19-2.03-8.46-2.29,9.09-2.54-7.07-.76,2.4-1.02-6.32-1.14,7.83-1.27-9.98-.89,5.31-1.52-4.42-1.4,10.86-1.27-2.78-1.9,4.55-1.65-5.18-1.27,3.28-2.16-7.96-1.52,7.83-1.9-14.4-1.14,7.71-1.14-3.66-.25,3.03-1.4-6.57-1.27,14.91-2.16-8.46-.76,9.98-.76-4.55-2.03,4.67-2.41-9.98-.76,10.74-2.16-10.23-.63,8.97-1.9-10.36-1.52,10.86-1.9-14.53-1.27,8.97-2.79-9.09-1.27,11.87-1.65-4.8-1.4,6.57-1.27-4.42-2.16,4.67-2.54-7.96-1.65,5.31-1.52-11.24-.76,11.24-1.4-10.23-1.52,12.25-1.14-3.16-1.14,3.16-2.16-3.66-1.27,4.04-2.29-7.33-1.27,7.83-1.52-7.2-.25,5.94-2.67-9.47-.76,6.32-1.27-5.31-1.27,12.63-1.65,.25-1.65-14.91-.63,14.53-3.05,.63-1.02-10.74-.51,10.36-2.41-.13-.89-7.83-.38,7.83h-1.52l-1.02-8.59-.38,8.46-2.54,.13-1.14-12.38-.51,12.25-2.54-.38-1.78-18.32-.63,18.57-1.4,.25-.89-10.36-.25,10.11-3.05-.38-1.4-7.07-1.9,7.45-1.02-12.38-.89,12.63-2.79,.38-1.27-6.19-2.29,6.19-1.27-14.53-.51,13.89-3.3-.13-1.78-13.52-1.14,13.14-1.14-5.94-1.4,5.56-2.03-7.83-1.9,7.45-2.16-13.39-2.41,13.39-1.52-23.37-3.55,23.37-1.78-6.69-2.54,6.69-1.27-7.07-2.03,7.33-1.27-16.42-1.78,15.92-1.02-6.44-1.78,6.57-1.02-8.21-.76,8.08-2.16,.13-.89-8.72-1.14,9.22-1.62-12.76-1.56,12.51-1.27-11.62-1.65,12-.89-6.06-2.28,5.81-.89-5.05-.76,4.93-1.52-5.31-1.78,5.05-1.78-13.89-2.41,13.39-1.78-17.56-3.55,17.68-1.65-6.06-1.27,5.43-1.65,.13-1.52-3.28-1.4,3.28-1.27-11.62-2.67,11.12-.63-13.01-1.27,13.14-1.02-3.79-1.4,3.41-1.4-8.46-2.28,8.59-.76-14.65-2.41,14.4-1.27-5.81-1.78,5.68-1.65-2.91-1.65,2.78-1.4-7.96-1.14,8.59-3.43-.25-1.78-16.17-1.52,15.66-1.65-5.05-1.14,5.56-1.9-9.98-1.65,8.72-1.02-5.81-.25,5.94-3.43,.51-.76-7.33v6.95l-2.16-.38-.89-12.51-1.14,13.26-1.27-3.28-.76,2.91-2.28-7.45-1.65,6.44-1.27-7.07-.38,6.95-1.4-6.44-1.27,9.22-2.92-.25-1.9-3.79-1.9,2.65-1.52-7.71-1.65,8.84-1.27-13.64-.63,13.26-2.54-14.27-2.79,16.55-2.29-7.71-2.67,7.07-2.28-8.34-1.65,8.46-2.16-15.16-2.67,15.41-1.78-9.73-1.9,9.47-1.4-17.94-3.55,19.07-1.9-9.98-2.92,10.11-2.03-7.71-1.14,7.45-1.14-15.41-2.54,15.28-1.65-19.71-2.28,21.22-1.52-16.42-1.65,16.04-2.28-9.09-3.17,9.47-.89-4.8-.76,4.17-1.14-8.08-2.54,8.08-1.27-9.98-2.29,9.98-2.54-12.25-3.3,11.24-1.78-14.91-1.4,13.52-2.41-11.24-1.78,11.24-2.54-4.42-.51,4.55-2.92-3.92-2.41,1.64-2.41-11.24-1.9,11.12-2.67-9.09-1.78,12-1.78-6.69-1.52,5.43-2.29-3.54-1.52,3.16-3.43-8.84-2.79,6.57-1.9-9.22-2.03,8.59-2.03-7.96-1.02,7.2-2.79-9.22-3.05,13.52-1.52-6.82-2.28,2.15-3.43-51.66-1.78,52.8-1.78-9.98-1.9,15.03-1.78-10.36-1.4,11.24-2.03-10.86-.38,10.48-2.79-8.84-2.54,.76-2.16-5.81-2.41,5.18-2.41-9.6-2.03,9.98-2.03-5.31-1.9,7.58-2.92-12.25-3.55,13.26-1.78-4.8-1.78,5.43-1.4-3.03-1.14,2.65-1.65-5.81-1.9,5.81L.42,49.33l.08,36.71,2.63-13.52v4.8l.76-4.8,1.65,5.18,1.27-6.32,1.65,2.65,1.14-3.28,1.52,2.65,.89-2.53,1.27,4.29,1.9-2.27,1.14,7.33,1.27-3.92,.89,9.35,1.65-12.25,.89,6.32,.38-6.44,1.4,6.95,1.14-8.84,1.27,7.45,.51-7.33,1.14,6.69,1.14-3.79,1.65,2.53,.51-3.16,.63,1.89,1.02-5.05,1.27,1.26,1.02,3.54,1.27-4.29,1.02,5.43,.76-4.8,.76,4.17,1.4-5.81,1.27,1.89,2.16-2.15v6.69l1.65-5.68,.51,9.35,2.16-11.24,1.52,10.23,1.4-7.45,1.14,6.57v-6.57l.89,.88,1.52-1.64,.38,3.92,1.52-3.16,.63,3.16,1.02-2.15,1.52,6.95,1.27-7.45,.63,5.62,1.52-7.64,.76,8.84,.63-7.83,1.27,3.16,.89-4.04,2.67,.13,1.65,10.86,1.14-10.48,1.52,4.29,.89-5.05,1.14,3.03,1.14-2.78,.38,4.29,1.52-4.8,.63,4.42,1.14-5.05,1.27,9.6,1.4-5.68,1.9,7.58,1.27-8.59,2.29,10.86,2.54-11.49,1.27,3.28,.51-3.54,1.14,3.03,1.52-3.28v3.41l.63-4.04,.76,4.29,.38-3.92,1.14,2.27,1.78-2.02,1.14,14.27,.76-7.39,.89,5.87,1.27-8.46,1.78,7.71,1.14-7.2,1.14,1.77,.76-2.91,.89,2.53,1.14-6.95,.89,7.2,1.14-3.66,.63,3.54,.76-4.04,1.02,2.91,.89-3.03,.63,4.04,.51-2.91,1.02,4.29,1.27-8.21,1.4,1.26,.89,4.8,1.02-4.29,.89,4.29,1.52-6.06v3.54l1.27-3.92,1.27,7.33,.51-3.41,1.27,13.01,1.14-18.82,1.14,5.43,.76-2.02v8.84l.89-1.52,1.02,6.44,1.78-6.82,.89,2.53,.76-5.68,1.65,1.77,1.4-3.41,1.02,2.91,1.14-2.78,2.03,15.79,1.65-10.11,1.52,5.31,.38-6.88,.76,3.98,1.9-9.98,1.52,3.03,1.02-2.91,.76,9.22,1.78-5.05,.63,3.66,.51-4.55,1.65,3.92,.38-3.79,1.52,2.15,.76-3.79,1.27,2.15,1.14-3.54,1.4,3.16,.25-2.53,.63,7.07,1.02-1.64,.76,8.72,1.4-7.71,1.27,7.71,1.52-6.57,1.14-5.68,1.52,6.44,1.14-6.19,1.02,2.02,1.02-3.92,1.78,4.42,1.14-4.67,1.02,1.14,.89-2.4,1.14,1.52,1.52-1.77,.51,9.47,1.02-3.28,1.52,6.19,1.52-8.34,1.02,3.92,.89-5.81,.51,2.02,1.4-2.4,1.02,2.91,.38-1.77,.89,4.55v-5.18l1.65,5.43,.25-5.31,.89,2.4,.89-3.28h2.54l1.27,2.4,1.27-1.77,.76,4.55,.51-2.53,1.14,3.03,1.14-3.79,.76,2.15,1.14-4.42,1.4,2.02-.38,10.36,1.4-2.27,1.4,4.42,1.02-5.68,1.52,4.8v-7.96l1.65,2.78,.25-5.94,1.14,3.28,.38-3.79,.89,4.04,1.02-4.67v3.28l1.52-4.42,.76,3.28,.89-3.54,.38,1.77,1.4-2.4,1.14,13.89,1.4-5.81,.76,2.78,.38-7.71,1.02,3.41,.38-3.92,.76,5.31,1.52-3.54,2.54,1.89,.63-4.93,1.52,2.27,.76,3.41,.51-3.28,1.65,1.89,.63-5.05,1.65,1.01v-3.54l1.65,2.27,.76-2.53,1.14,2.53,1.14-.88,.76,1.89,.25,6.95,.89-1.77,.76,3.16,.38-4.8,.51,1.52,1.4-4.55,.25,2.4,1.02-.88,1.14,6.95,.89-5.18,1.14,1.01,.38-2.02,.63,.51,.63-4.42,.25,4.55,.63-1.89,1.52,1.39,.89-3.41,.89,2.02,.76-1.01v7.45l.76-2.4,.89,8.84,.25-3.54,.63,2.02,1.4-11.24v4.67l.76-1.14,.89,3.28,.51-2.65,1.4,1.01,1.14-5.81,1.4,6.44,1.02-2.97,.76,5.49,.38-5.49,2.03,6.63,.89-10.23,1.02,2.65,1.52-2.02,1.27,7.33,.76-5.31,.89,4.8,1.14-5.18,.38,3.28,1.27-6.57,.89,3.28,.63-6.06,.76,6.19,1.14-2.27,.76,9.85,.89-6.69,1.65,14.4,1.14-19.07,1.9,21.47,.25-16.29,1.27,3.41,1.02-5.68,1.4,4.93,1.14-5.62,1.52,3.35,.76-3.92,2.41,9.09,1.14-4.67,1.4,6.57,1.52-8.08,.89,5.05,.63-5.43,.89,2.53,.76-6.57,1.02,2.27,.89-2.15,1.65,8.21,.76-6.44,1.14,2.78,1.14-4.04,.89,2.02,1.78-4.42,1.02,1.52,1.4-2.65,2.29,1.77,.38,4.42,2.03-1.39,1.78,13.89,.38-15.28,1.4,6.69,1.52-7.83,.63,7.58,2.03-6.82v6.44l1.14-5.18,.89,3.66,2.28-3.79,1.52,1.39,1.14-2.15,1.52,6.19,1.02-5.81,.76,7.58,1.52-3.28,1.4,4.17,.63-5.05,1.14,1.89,.63-8.21,1.65,7.2,.25-4.17,1.52,12.13,.63-7.07,.76,3.03,1.14-3.41,1.14,1.64,.63-4.29,1.02,3.54,.63-3.16,1.65,6.06,.76-9.47,1.65,3.28,.76-5.18h1.4l1.14,4.67,1.14-4.17,1.4,9.85,1.27-7.2,1.02,10.11,.63-9.98,.89,11.24,1.02-13.39,1,14.65,.65-11.75,.38,6.19,1.02-5.43,1.52,5.43-.51-7.83,1.9,4.29,.89-4.8,1.27,3.66,.25-4.93,1.9,9.09,.89-4.29,.89,9.85,.63-9.85,.89,8.34,.89-11.87,.89,8.72,.25-5.81,.89,2.15,2.03-3.54,.38,6.19,1.02-4.93,1.27,12,.76-12.13,1.27,6.95,1.27-8.08,1.9,6.32,1.4-6.69,1.78,4.8,1.02-5.56,.63,3.41,2.92-4.55,2.03,16.04,2.03-10.99,1.4,9.47,1.02-12.25,1.02,9.47,.76-10.11,.89,4.04,1.4-5.43,1.27,3.54,1.52-3.03,3.3,1.14,2.29,9.35,2.03-9.73,1.9,7.83,1.52-8.59,1.78,4.42,1.9-5.05,1.9,10.36,1.52-9.85,1.9,5.68,.25-5.56,2.41,.88,1.27-3.03,1.78,1.77,1.4,8.08,1.14-4.17,3.05-.38,1.78,9.22,.63-2.02,1.14,2.91,1.4-8.84,1.11,.1c0-9.31,.04-19.52,.1-28.86Z"/></g></g></svg>