<?xml version="1.0" encoding="UTF-8"?><svg xmlns="http://www.w3.org/2000/svg" viewBox="0 0 165.34 416.81"><defs><style>.cls-1{fill:#ac1f2d;}.cls-2,.cls-3,.cls-4{fill:#fff;}.cls-5{fill:#c3996b;}.cls-6{fill:#873a1d;}.cls-7{opacity:.9;}.cls-3,.cls-8,.cls-9,.cls-10{stroke-miterlimit:10;}.cls-3,.cls-9{stroke:#231f20;}.cls-8{stroke:#e7c6b4;}.cls-8,.cls-11,.cls-10{fill:none;}.cls-12{fill:#593a16;}.cls-13{isolation:isolate;}.cls-14{fill:#be1e2d;}.cls-15{fill:#2b2969;}.cls-16{fill:#3b1e1f;}.cls-9,.cls-17{fill:#231f20;}.cls-18{fill:#911e2d;}.cls-19{fill:#b51f2d;}.cls-20{fill:#346e36;}.cls-21{fill:#e7c6b4;}.cls-22{fill:#4a1f1f;}.cls-23{fill:#2b388f;}.cls-24{fill:#e8eef8;}.cls-25{fill:#2a0d40;}.cls-26{fill:#32141b;}.cls-4{mix-blend-mode:lighten;opacity:.8;}.cls-27{fill:#7e5450;}.cls-28{opacity:.19;}.cls-28,.cls-29{fill:#ddc1aa;}.cls-10{stroke:#be1e2d;}</style></defs><g class="cls-13"><g id="Layer_2"><g id="Layer_1-2"><g><path class="cls-29" d="M57.17,133.49c-1.91,.73-3.82,1.6-4.55,1.94-.21,.1-.44,.16-.68,.18-25.71,2.31-32.46,11.49-32.46,11.49-5.64,6.11-11.97,17.73-12.7,19.09-.05,.09-.11,.18-.17,.26-7.53,9.71-3.97,19.12-1.43,21.01l18.39,16.92,9.9,8.89c1.27,1.14,3.32,.4,3.54-1.29,.56-4.27-1.38-10.09-1.94-11.62-.09-.25-.23-.48-.4-.68l-3.65-4.15s-.05-.06-.08-.1l-10.56-13.53c-1.18-2.65,1.95-3.94,3.46-4.39,.47-.14,.96-.12,1.41,.07,1.51,.62,3.02,1.34,3.84,1.73,.4,.19,.73,.51,.94,.91,3.59,6.73,2.93,6.95,3.55,9.37,.52,2.01,1.25,4.93,1.52,5.98,.07,.27,.08,.54,.04,.81l-.24,1.72c-.05,.38-.02,.76,.12,1.11,1.82,4.47,1.61,15.47,1.61,15.47,.13,.1-.88,4.69-1,5.21,0,.04-.01,.07-.02,.1-.77,4.88-1.83,8.44-.33,17.54,.4,2.44,1.51,4.46,2.76,6.23,.14,.2,.25,.42,.31,.65,1.42,5.12,2.6,11.54,2.58,18.96-.01,6.7,2.93,13.76,2.16,18.7-.09,.61,.11,1.23,.52,1.69,3.06,3.5,2.26,3.57,4.48,3.99,.58,.11,2.43,.41,3.79,.64,.93,.15,1.65,.89,1.77,1.82,.47,3.54,.92,7.12,1.34,10.74,.4,3.45,1.73,9.87,1.97,10.59,.08,.24,.1,.48,.22,.7,.36,.7,4.07,10.45,4.58,18.06,.2,3.04,.05,5.84-.28,8.34-.06,.49-.31,.93-.66,1.27-3.5,3.33-6.19,6.03-8,7.89-2.98,3.05-4.61,4.84-7.92,6.31-2.12,.94-4.19,1.42-5.83,1.67-.79,.12-1.46,.67-1.7,1.43-.52,1.59-.09,3.22,1.29,4.18,2.57,1.8,8.45-.22,9.52-.62,.11-.04,.21-.09,.32-.15l12.27-6.93c1.32-.74,3-1.01,4.62-.76,17.25,2.69,12.42-8.13,11.26-10.35-.14-.27-.22-.58-.24-.89-.56-12.6-.03-21.96,.03-22.97,0-.07,.01-.13,.02-.19,1.52-9.39,2.28-13.13,1.64-23.61-.09-1.41,3.33,1.96,10.83,2.96,.54,.07,1.04,.32,1.38,.75,4.34,5.47,11.8,27.67,13.21,31.76,6.44,18.78,8.14,21.19,8.94,28.88,.39,3.74,.62,12.32,.69,16.37,.01,.68,.35,1.31,.9,1.7l2.85,2.02c.51,.36,.81,.92,.89,1.53,.73,5.59,4.43,11.01,5.4,16.43,.19,1.07,3.98,3.94,9.23-.71,.31-.28,.7-.47,1.11-.54,4.88-.82,5.99-1.39,6.77-2,1.9-1.5,2.18-3.57,2.13-4.92-.02-.56-.29-1.09-.71-1.47-4.13-3.72-6.77-7.06-8.44-9.48,0,0-1.49-2.16-6.71-11.79-.05-.09-.09-.18-.13-.27-3.24-8.12-1.77-25.53-1.47-33.17,.25-6.45,1.76-11.21-3.45-22.76-.08-.18-.14-.39-.17-.59-.65-4.56-1.15-8.33-1.48-10.9,0-.05-.01-.1-.01-.15-.51-9.28-1.02-18.56-1.53-27.84-1.87-17.94-3.02-28.9-3.02-28.97,0,0,0-.03,0-.07,0-.04,0-.07,0-.11-.54-1.45-1.05-3.42-1.05-5.76,0-2.53-.4-3.84-1.82-6.66l-1.65-10.47,.68-4.41c.07-.48,.31-.92,.67-1.25l2.06-1.89c.52-.48,.77-1.18,.67-1.88l-.8-5.62c.04-.17,.07-.33,.09-.5l.96-9.84c.01-.12,.04-.24,.07-.36,.08-.28,.14-.61,.14-.99,0-.33-.03-.64-.09-.91-.11-.48-.04-.98,.18-1.41,1.6-3.15,3.2-6.3,4.8-9.45,.41-.8,1.27-1.27,2.17-1.15,2.71,.36,5.87,.6,9.38,.55,2.28-.03,3.81-.11,5.5-.29,.68-.07,1.35,.18,1.81,.68,.56,.61,1.12,1.16,1.7,1.59,.7,.52,1.02,1.4,.8,2.25-.95,3.65-1.89,7.3-2.84,10.95-.05,.2-.14,.4-.24,.58l-8.01,13.12c-.98,1.72-4.11,3.15-7.06,5.96-1.29,1.23-2.6,.82-3.56,.18-.9-.6-2.11-.38-2.79,.46h0c-.17,.2-.29,.44-.38,.69-.9,2.78-.86,3.51-1.26,5.43-.62,2.96,1.51,2.97,2.65,4.29,.27,.31,5.36-.18,7.71-.41,1.84-.15,3.53-.85,4.69-1.93,.1-.1,.21-.18,.33-.26l8.57-5.08c.45-.27,.86-.61,1.22-.99,9.74-10.68,14.09-15.94,14.8-16.82,.07-.09,.13-.18,.19-.28,3.59-6.4,9.04-13.7,9.75-17.64,.48-2.7-11.47-16.28-12.68-17.64-.07-.07-.13-.14-.21-.21l-26.72-22.9c-.16-.14-.34-.25-.54-.34-11.22-4.92-34.93-9.35-34.93-9.35"/><path class="cls-21" d="M111.66,61.42c-3.98-2.95-.41-5.44-1.42-5.86-.17-.07,3.02-1.47-1.38-12.32-2.75-6.79-17.5-8.38-42.4-11.63-6.53,4.02-13.06,8.03-19.59,12.05l-7.99,5.89c-4.16,4.23-3.91,27.09-5.33,27.04-.02,0-1.36-3.69-1.57-4.42-.65-2.22,.6-5.12-1.52-8.87-.67-1.19-1.89-1.3-3.55-1.68-2.05-.47-4.56,.63-5.16,2.36-.24,.69-.22,1.34,.24,2.49,1.4,3.53,3.75,5.82,4.38,10.3,.49,3.45-.94,5.34,.54,6.73,.08,.07,1.47,1.35,3,1.07,.83-.15,1.32-.37,1.77-.16,.65,.31,.49,1.5,.48,1.77-.15,2.56,1.6,5.94,4.48,11.47,2.02,3.87,3.79,8.07,7.83,11.4,5.86,4.83,13.85,10.04,13.85,10.04,0,0-3.23,4.62-5.12,9.91-.46,1.28,.7,4.14,1.16,4.65,5.71,6.39,19.57,11,29.49,3.66,4.74-3.51,7.6-10.09,7.6-10.09,0,0,.4-.05-1-4.59-.97-3.11-.43-3.21-1.34-7.24,3.53-4.43,6.14-8.26,7.91-11.03,1.91-2.98,2.88-4.51,3.54-6.32,2.27-6.28,1.89-11.49,1.89-11.49-.13-1.74-.05-3.98,.24-3.81,1.71,.95,3.01,.85,3.2-1.4,.8-1.99,.53-6.07,2.44-9.36,2.63-4.51,1.8-2.85,3.33-5.95,1.78-3.6,.69-4.09-.02-4.62Zm-4.84,2.72s-.01-2.96,.02-2.96c.02,0,.01,2.96-.02,2.96Z"/><path class="cls-5" d="M93.01,66.56c-.08,.65,0,1.02,.35,1.7-1.98,2.49-6.52,2.3-8.06-.67-.53-.14-.74,.43-1.13,.55-.31,.09-1.48,.41-1.93,.38,.71-1.6,2.74-2.98,4.07-3.49,2.16-.82,7.47-1.11,10.52,2.34,.36,.41,.16,.72-.2,.51-1.2-.73-2.31-1.09-3.62-1.31Z"/><path class="cls-5" d="M51.98,71.7c-.66-1.3-.91-2.38-.06-3.46-4.59-.41-5.18,2.72-7.94,2.32,4.04-3.5,11.11-5.21,15.83-2.08,.85,.56,.79,1.32,.94,1.85-.69,.8-1.92-.47-2.71-.79-.8,2.77-3.64,3.85-6.05,2.16Z"/><path class="cls-5" d="M61.08,56.36c-2.58,.65-4.98-1.23-7.58,0-3.15,1.08-8.22,3.46-9.1,6.21-.06,.19-.42,.33-.62,.19-.57-.41-.67-.52-1.29-.8,1.68-4.06,16.33-10.75,18.59-5.6Z"/><path class="cls-5" d="M98.32,52.86c-.37,.25-.63,.44-.98,.68-3.07-3.71-9.18-6.35-13.05-2.36-.37,.28-.76,.52-1.23,.2,2.64-5.87,13.37-4.21,15.26,1.47Z"/><path class="cls-5" d="M85.07,120.24c-1.36,1.24-2.94,1.66-4.77,2.48-1.95,.87-7.67,1.67-10.58,1.27-2.65-.37-9.88-3.87-9.88-3.87,0,0,8.65,2.67,10.98,2.84s7.85-.8,7.85-.8c0,0,5.72-1.91,7.78-3.66l-1.39,1.75Z"/><path class="cls-5" d="M107.21,69.24c2.24-.04,2.06-2.52,3.29-3.87q-.3-.81-.95-1.22c-.69,.16-1.07,.87-1.7,1.12,0,.03,1.39-.41,1.39-.39-.15,.44,.24,.95-.33,1.23,.88,1.05-1.26,2.08-1.7,3.12Z"/><path class="cls-5" d="M95,70.37c-3.31,1.39-7.02,2.63-10.43,0,5.29,1.26,5,.91,10.43,0Z"/><path class="cls-5" d="M50.56,73.37c2.48,.02,6.95-.2,9.14-1.72,.15,.54-1.71,1.5-2.21,1.69-2.24,.35-4.14,.92-6.93,.03Z"/><path class="cls-5" d="M76.83,90c-2.48,1.82-7.82,.45-9.98-1.46l-.05,.05c.37,.06,.84,0,1.1,.2,2.23,1.78,2.87,.89,5.32,1.3,0,0,2.04-.39,3.6-.08Z"/><path class="cls-5" d="M73.27,119.11c.03-1.47,1.94-2.68,3.6-1.87,.36,.17-2.8-.24-2.91,2.05-.02,.43-.54,.2-.69-.18Z"/><path class="cls-4" d="M96.63,67.88s-3.11,2.67-7.08,2.85-7.31-2.2-7.31-2.2c0,0,3.11-2.67,7.08-2.85s7.31,2.2,7.31,2.2Z"/><path class="cls-4" d="M60.8,70.37s-3.45,2.53-7.7,2.53-7.7-2.53-7.7-2.53c0,0,3.45-2.53,7.7-2.53s7.7,2.53,7.7,2.53Z"/><path class="cls-20" d="M56.99,70.2c0,1.27-1.69,2.29-3.78,2.29s-3.78-1.03-3.78-2.29,1.1-2.51,3.78-2.29c3.9,.32,3.78,1.03,3.78,2.29Z"/><ellipse class="cls-20" cx="89.25" cy="68.2" rx="3.69" ry="2.42"/><g><ellipse class="cls-26" cx="53.69" cy="70.13" rx="2.2" ry="1.78"/><ellipse class="cls-2" cx="53.17" cy="70.56" rx=".84" ry=".68"/></g><g><ellipse class="cls-26" cx="89.25" cy="68.35" rx="2.2" ry="1.78"/><ellipse class="cls-2" cx="88.73" cy="68.77" rx=".84" ry=".68"/></g><path class="cls-5" d="M78.26,113.2c-2.45,1.39-7.37,2.63-9.5,.41,.41-.39,.69-.13,.99-.04,2.84,1,5.7,.22,8.55-.33l-.04-.04Z"/><polyline class="cls-11" points="72.17 107.98 73.52 114.01 86.18 103.15"/><path class="cls-5" d="M28.92,65.23c-.19,.14-.56,.18-1.2-.29-2.68-1.53-2.18,4.48,.45,4.72-.63-.06-.74,1.66-1.38,1.33-1.01-1.22-1.21-3.13-1.75-4.41-.48-1.16,.22-2.08,1.16-2.34,1.26-.34,2.46-.42,2.72,.98Z"/><path class="cls-8" d="M29.57,66.45c-.26,.07-.79,.26-1.14,.76-.53,.76-.42,1.95,.34,2.89"/><path class="cls-5" d="M29.14,76.56c.42,3.21-.12,5.73,3.38,4.74,.48-.14-1.02,.84-1.02,.84,0,0-2.27,1.01-2.81-.28-.09-.16-.15-.39-.14-.53,.08-1.05,.57-4.95,.6-4.77Z"/><line class="cls-11" x1="29.99" y1="79.71" x2="28.83" y2="79.83"/><path class="cls-5" d="M77.62,90.39c5.6,.81,6.64-7.26,3.87-11.03-6.42-8.75-4.57-17.94-4.57-17.94,0,0,.34,6.46,.62,8.2,.34,2.12,2.36,5.99,4.89,9.24,2.88,3.7,.11,14.95-4.81,11.53Z"/><path class="cls-6" d="M57.31,44.84s7-4.42,9.45-9.98c2.45-5.56-7.83,6.69-9.45,9.98Z"/><path class="cls-6" d="M72.32,37.24c-1.34,12.51,.1-.89-1.43,13.34,0,0-3.41-11.81,1.43-13.34Z"/><path class="cls-6" d="M76.36,36.28l7.47,7.58-1.3-5.02s0-1.55-6.17-2.56Z"/><path class="cls-5" d="M103.12,80.3s1.52,1.82,2.46-.58c.95-2.4,0-3.02,0-3.02,0,0,.25,4.31-2.46,3.6Z"/><path class="cls-5" d="M34.06,90.59c2.95,4.89,6.02,9.65,9.58,14.1,2.98,3.92,8.23,8.82,11.72,12.39l-.16,.19c-7.26-4.77-13.63-11.01-17.83-18.66-1.42-2.52-2.64-5.16-3.54-7.91l.23-.1h0Z"/><path class="cls-5" d="M89.56,115.09c2.71-4.44,5.1-9.09,7.22-13.84,1.55-3.34,3.47-6.55,4.4-10.13,.73-2.84,1.31-5.81,1.38-8.75h.25c.52,12.31-6.41,23.05-13.25,32.72h0Z"/><path class="cls-22" d="M103.89,72.33c.09-.23-1.13-1.85,.67-3.81,.26-.28,.41-.63,.49-1l.68-3.1s.04-.04,.06-.06c0-.1-.02-.21-.03-.32-4.35,8.02-1.82,6.94-3.19,9.9-.1,.22-.16,.47-.13,.71,.1,.88,.18,1.78,.13,2.63-.02,.25-.04,.51-.07,.76,.06,.26,.7-2.47,.73-2.29-.03-1.4,.03-1.52,.64-3.41Z"/><path class="cls-22" d="M108.22,62.5c-.23,0-.43,.13-.66,.17-.26,.04-.5,.1-.72,.18,0,.1,0,.21,0,.31,1.85-1.84,6.81,.49,3.3,4.78-.08,.1-.67,1.1-.71,1.22-.32,.99-.11,.52-1.72,3.7-.12,.23-.62,.9-.64,1.17-.08,1.01-.36,3.72-.41,4.09-.13,1.02-.44,2.07-.9,3.01,.27,1.32-.44,1.69-1.54,1.73-.76,.03-1.07-.76-1.74-.79,1.07,12.16-6.34,24.01-13.24,33.23,2.31-1.49,4.9-4.87,6.67-7.07,1.19-1.6,2.05-2.36,3.16-5.13,.11-.26,.45-.35,.56-.61,2.36-5.33,3.63-11.41,3.97-17.26,.03-.55,.4-1.04,.94-1.18,.9-.24,1.62-.19,2.19-1.46-.05-.71-.14-1.35,.04-1.96,.8-4.48,1.21-8.1,4.07-12.5,1.4-2.15,2.95-5.61-2.66-5.64Z"/><path class="cls-16" d="M94.01,48.27c-1.59-1.45-3.66-2.45-4.52-4.74,1.56,.55,2.1,2.22,3.68,2.67,1.76-2.43,3.4,2.41,5.92,1.02,1.3,1.53,1.37,3.87,3.31,4.66,1.4,.48,1.72,1.71,2.19,2.8,.13,.3,.05,.82-.15,1.1-1.16,2.01,.68,4.23-1.05,6.19-.64,1.91-.58,3.98-.4,6.05-.17,.73-.37,1.45-.6,2.16-.57-4.62-.9-9.92,.93-10.06,.95-4.33-2.01-6-3.56-9.44-.33-2.1-3.01-2.08-4.52-3.31-.43,.31-.79,.57-1.23,.89ZM58.28,119.01c-.74-.52-.86-.43-1.86-1.19-2.72-2.05-5.03-3.43-7.8-5.63-6.9-5.48-14.79-17.56-16.59-28.14-5.81,1.01-5.11-.67-4.91-5.42,.19-4.47-6.82-13.12-3.15-15.58,5.08-3.41,7.98,3.22,7.08,7.59-.25,2.53,1.9,4.44,2.3,6.89,1.67-.32,.58-2.47,.92-3.54,.52-1.64,.74-2.56,.88-3.77,.23-1.94,.62-3.62,1.15-7.44l3.35-11.01c-4.08,3.6-8.42,18.39-6.3,22.21-1.03-1.85-.83-4.27-1.23-7.93-.64-5.92-7.92-6.16-9.55-2.53-2.39,4.99,3.79,13.32,3.52,14.71-.88,4.47-1.15,8.01,5.26,6.78,1.47,8.1,4.69,14.67,9.68,21.06,1.79,2.29,2.44,3.32,3.84,4.58,2.85,2.56,5.03,4.26,6.62,5.36,1.08,.74,3.56,2.78,4.79,2.9m10.12-78.72c-.53,7.04,.51,9.4,6.08,13.06l.57-.67-1.14-1.52,.52-.67c-1.79-4.13-.12-8.38,.34-12.64,1.65,2.27,3.21,3.89,5.22,5.8l.51-.8c-.76-.69-1.59-1.2-1.62-2.21l.06,.07c-2.29-.58-2.49-3.06-4.14-4.12-2.57,3.89-1.48,9.52-2.26,13.93-5.55-2.38-1.97-10.49-4.21-10.18,0,0,.06-.04,.06-.04Zm-22.03,7.86c1.48-.56,2.98-3.09,5.24-2.42,.83,2.45,1.31,4.98,1.7,7.51,2.96-1.35,2.55-5.01,5.07-6.85v1.86c2.04-.63,2.77-2.46,4.8-3.06,.76-.53,1.33-1.45,1.99-2.13,.66-1.58,4.42-2.59,3.44-4.04-3.25,2.13-5.5,5.74-8.96,7.25l-.13-1.94c-2.93,1.63-3.09,4.38-5.33,6.63-.97-2.26-.58-4.95-2.42-6.5-2.07,.79-9.66,4.25-10.51,8.65l5.1-4.96Zm39.55-3.64l.68-.57c-1.15-2.12-1.31-4.29-1.04-6.53,.42-.18,1.07-.88,1.42-1.03-2.15-2.74-2.07,5.34-2.33,6.51-.68,.19-1.39-.26-1.84-.71-1.01-1.19-2.48-1.6-4.01-2.33,.03,.33,.22,.91,.09,.78,2.4,1.28,4.29,3.3,7.03,3.88Z"/><path class="cls-5" d="M58.51,120.55s-4.17,6.73-4.26,8.72c0,0,1.23,5.46,5.49,7.75l-3.32-5.76s-.85-.38,.09-3.51c.95-3.13-.47-1.89,1.99-7.2Z"/><path class="cls-27" d="M81.42,107.81c-3.62,4.19-9.47,4.53-14.21,1.8-2.63-2.02-5.26-3.2-7.8-5.49-.6-.36-.62-.59-1.54-1.66-.24-.28,.8-.13,.99-.3,4.29-.56,6.59-.87,10.76-1.97,2.33-.61,4.64,1.54,7.06,.16,2.88-.23,6.55,.78,9.38,1.53-.1,.46-2.48,3.45-2.99,3.93,0,0-.81,1.19-1.71,2.07l.06-.07Z"/><path class="cls-24" d="M65.05,108.72c.43,.43,4.85,4.67,10.59,3.5,2.66-.54,4.29-1.56,5.35-2.85l-15.94-.65Z"/><path class="cls-24" d="M58.48,103.01l26.96-.02c.25-.31-.31,.21,.63-1.06-1.42-.5-5.3-2.26-6.55-2.46s-2.97,.26-5.13,.38c-.45-.16-1.07-.33-1.83-.5-1.02-.22-2.26-.39-3.13-.18-3.9,.87-4.66,1.32-6.51,1.75-2.39,.56-3.63,1.33-5.16,1.43,1.66,1.47-.08,.06,.71,.65Z"/><path class="cls-5" d="M74.24,99.69c.86-.03,2.01-.61,3.27-.64,1.06-.02,9.23,2.13,8.55,2.91-2.07-.7-4.56-.86-6.77-1.35-1.33-.29-3.39,.34-4.91,.33-1.24-.01-2.86-.92-4.76-.53-2.97,.61-8.87,2.08-11.9,1.93,2.35-1.01,11.96-3.42,13.22-3.45,1.46-.04,2.71,.83,3.29,.81Z"/><path class="cls-5" d="M57.73,102.34s7.98,6.78,12.33,8.52c.94,.38,2.58,.75,4.56,.53,2.36-.26,4.19-1.01,5.24-2.11,2.39-2.5,6.02-7.08,6.21-7.32-.21,2.99-.97,3.54-1.4,4.19-2.42,3.41-3.77,5.89-9.66,6.63-4.73,.6-8.39-1.98-11.68-4.29-2.35-1.65-4.54-4.93-5.58-6.15Z"/><g><path class="cls-17" d="M31.86,192.45c2.52-.16,8.58,.3,10.82,.45,.86,.05,3.63,.47,4.24,.83,.36,.21,2.43,1.65,1.5,3.86-.04,.11,0,.22,.13,.29,2.28,1.22,22.11,12.47,.73,24.13h-.02c-.31,.21-11.1,6.93-24.05-3.29,0,0-.02-.01-.02-.02-.11-.11-1.02-1.08,.48-1.91,.16-.09,.19-.24,.05-.36-1.16-.99-5.84-5.3-4.22-9.09,.02-.06,.03-.11,0-.16-.21-.39-1.15-2.28-.56-4.51h0c.05-.19-.11-.95,.42-.44,.67,.65,3.61,2.26,6.39,2.58,.35,.04,.7,0,1.02-.1,1.34-.46,5.08-1.95,5.97-4.59,.15-.46-.16-.6-.62-.93l-3.63-4.38c-.12-.15-.19-.34-.18-.53,.06-1.28,.65-1.75,1.57-1.81Z"/><path class="cls-2" d="M30.99,193.89c.35-1.86,3.8-.09,6.31-.24,3.21-.19,4.8,.17,7.12,.4,.64,.06,2.05,.51,2.64,.87,.61,.38,.51,1.53,.61,2.01,.15,.78-.26,.89-.35,1.09-1.02-.1-1.57-.45-3.32-.88-1.65-.41-2.67,.11-2.84,.28,0,0-1.72-1.44-7.13-2.2-1.58-.22-3.11-1-3.04-1.33Z"/><path class="cls-3" d="M21.34,203.51s6.83,4.22,11.36-.03c1.37-1.16,6.73-2.41,2.5-5.07-.76-.48-3.81-3.29-3.44-3.28l2.83,.95s6.73,.54,6.45,6.25c0,.1-.03,.19-.06,.29-.35,.93-2.64,5.69-12.76,5.84,0,0-8.48-.42-6.88-4.95Z"/><path class="cls-3" d="M55.57,205.79s-3.5-7.73-15.11-7.19c0,0,3.77,4.72-2.58,8.43-.06,.04-.13,.08-.18,.12-.68,.48-6.07,3.7-15.62,.89,0,0,1.22,11.35,18.56,10.65,0,0-4.72,2.6-13.98-.59,0,0,7.09,8.63,21.67,2.43,0,0,11.22-4.17,7.25-14.74Zm-4.84,0c-.22,1.12-6.73-1.15-6.73-1.15,0,0,6.95,.04,6.73,1.15Zm-10.79,7.25c4.2,.23,7.95,2.26,7.61,2.77s-7.61-2.77-7.61-2.77Zm2.7-4.45s7.72,.92,7.37,2.1c-.36,1.19-7.37-2.1-7.37-2.1Z"/></g><path class="cls-23" d="M36.62,253.62s57.02,6.42,80.96-3.39c0,0,10.69,41.26,8.48,57.43,0,0-33.85,10.85-44.89,2.76,0,0,.17-5.74-4.8-11.7,0,0-22.64,12.77-37.55-2.98,0,0-4.18-30.82-2.21-42.13Z"/><path class="cls-15" d="M38.24,269.66s.42,22.07,2.06,25.96c0,0,7.51,7.11,12.25,6.73,0,0-8.43-3.69-8.43-6.35s-2.56-6.54-2.56-6.54c0,0-2.94-16.48-3.32-19.8Z"/><path class="cls-14" d="M91.63,127.08c-4.36,7.96-12.2,17.06-25.41,13.5-11.03-2.97-12.26-10.2-12.96-11.29-13.75,.91-13.02,4-20.52,7.21C8.25,146.98,.78,169.48,.15,172.96c.24,.46,7.04-2.56,15.09,.25,6.07,2.12,6.93,8.32,7.93,7.8,1.89,1.04,4.98,.56,6.87,1.6,1.94,6.05,3.71,12.88,5,20.4,1.11,6.43,.53,11.97,.8,17.46-1.3,3.56-1.34,8.63-1.65,14.06-.47,8.3,.71,14.56,2.43,19.09,10.04,1.72,23.84,3.73,39.22,3.36,17.08-.42,31.35-2.95,41.85-5.5,1.56-5.85,.92-10.24,.04-13.17-1.4-4.69-3.66-6.51-3.78-10.85-.11-4.08,1.8-5.6,3.5-9.91,4.1-10.39-1.89-14.51,1.29-25.54,.74-2.56,2.1-5.64,5.75-10.31,1.4,.71,6.2,1.96,11.89,1.03,1.98-.32,2.91-.23,4.08-.8-2.06-1.83-3.47-4.38-5.53-6.21,2.01-1.95,4.87-4.33,8.75-6.58,4.73-2.75,8.53-4.09,11.84-4.98-2.6-2.55-6.25-7.06-11.65-12.5-9.12-9.19-10.65-12.32-15.53-14.03-15.4-5.4-31.62-9.22-36.71-10.52Z"/><path class="cls-10" d="M40.46,227.97s-7.29,34.23,75.63,20.09"/><path class="cls-19" d="M49.92,129.77c6.52,14.78,23.4,21.39,36.47,10.38,3.78-3.21,6.5-7.57,8.33-12.24-1.45,4.84-4.05,9.39-7.82,12.81-13.08,11.7-31.41,4.83-36.98-10.96h0Z"/><path class="cls-18" d="M155.52,164.14c-1.7-1.32-9.31,2.18-15.91,6.83-6.61,4.65-9.21,9.21-7.48,11.65,.47,.67,10.47,.25,8.93-.89-2.77-2.05-5.64-5.55-5.61-6.22,.07-1.69,6.73-5.59,9.57-7.29,3.11-1.86,7.58-5.02,11.08,.28,2.02,3.06,.63-3.44-.57-4.37Z"/><path class="cls-18" d="M.4,172.39c-1.53,1.53,1.8,5.4,1.98,4.48,1.17-6.05,7.27-5.03,11.27-4.04,3.29,.81,9.36,4,6.48,7.29-.6,.69,8.39,2.56,7.29,1.55-5.18-4.77-9.42-8.41-13.69-9.28-8.14-1.67-13.23-.11-13.35,0Z"/><path class="cls-1" d="M36.34,199.12s3.65,13.64,1.14,25.01c0,0-3.79,18.06,.88,28.55,0,0,29.43,4.29,34.86,3.03,0,0-42.57-3.92-31.58-29.18,0,0,2.15-22.74-5.31-27.41Z"/><path class="cls-1" d="M111.25,133.22s11.62,.97,13.89,4.88c0,0-15.92,10.74-3.28,41.81,0,0-13.26-16.67-6.69-38.27,0,0,3.54-3.83-3.92-8.42Z"/><path class="cls-5" d="M3.47,178.15s-1.61,5.31,1.23,7.77c0,0-1.89-3.98-1.23-7.77Z"/><path class="cls-5" d="M17.21,180.99s3.03,.38,5.02,4.07c0,0-1.23-1.99-5.02-4.07Z"/><path class="cls-5" d="M155.74,182.94s3.95,5.24,8.46,1.81c0,0-3.76,2.31-8.46-1.81Z"/><path class="cls-5" d="M160.73,178.62s1.14-.66,2.46,.57c0,0-1.71-.95-2.46-.57Z"/><path class="cls-1" d="M34.96,159.71s.76,17.95-4.8,21.99c0,0,5.56-15.92,4.8-21.99Z"/><g><path class="cls-9" d="M124.73,212.74s-8.37-4.41-21.29-2.29c-1.42,.31-3.51,.89-5.69,2.06-4.66,2.49-6.35,5.84-6.66,6.49-.11,.23-1.24,2.64-1.02,5.53,.57,7.61,10.04,12.7,11.48,13.45,2.93,1.31,7.56,2.95,13.49,3.46,4.58,.39,8.08-.06,9.04-.2,3.25-.45,5.83-1.24,7.63-1.91,0,0,3.97-1.82,5.39-5.56,0,0,2.86,.65,4.56-3.72,.14-.4,.36-1.26-.09-2.23-.88-1.89-3.52-2.45-3.77-2.5-2.72-.7-4.75-.99-7.47-1.68-.72,.28-4.97,1.15-8.65-.01-.78-.25-4.45-1.4-4.52-3.71-.06-2.01,2.65-3.31,2.86-3.41,.97-.97,3.11-2.35,4.72-3.76Z"/><g><path class="cls-3" d="M122.68,214.01c.33-.04,.39-.5,.08-.62-1.46-.57-4.01-1.26-6.74-.61-3.99,.95-6.74,4.36-6.02,8.16,2.16,4.77,7.41,7.5,11.86,6.96,2.71-.33,4.55-1.8,5.43-2.64-.91,.16-3.27,.46-5.8-.37-.41-.13-4.97-1.7-5.22-5.08-.19-2.57,2.24-4.26,2.48-4.42,1.36-.91,2.88-1.25,3.95-1.38Z"/><path class="cls-3" d="M131,224.62c2.63-.17,4.72,.27,6.1,.69,2,.61,4,1.22,4.54,2.95,.38,1.23-.15,2.41-.26,2.65-.87,1.92-2.86,2.21-3.03,2.23-.52-1.09-1.08-1.89-1.66-2.29-1.49-1.02-4.29-1.78-9.57-.78,0,0,1.32-.81,.4-2.17,0,0,2.72-.73,3.48-3.29Z"/><path class="cls-3" d="M127.56,230.47c-5.78,4.29-10.5,4.93-10.5,4.93,6.15-1.27,9.5-7.19,9.5-7.19-13.08,1.55-17.12-6.39-17.12-6.39-2.17-7.52,6.69-10.07,6.69-10.07-8.88-2.44-15.12,.08-19.39,2.37-5.7,3.06-5.59,9.69-5.59,9.69,.65,5.01,4.03,8.59,7.25,10.93,2.21,1.61,4.43,2.71,6.27,3.43,4.01,1.3,7.5,1.84,9.93,2.09,4.56,.47,13.37,1.37,19.13-2.61,1.98-1.37,3.04-2.93,3.63-4.02,.45-3.8-9.82-3.17-9.82-3.17Zm-22.69-9.95c-1,1.3-8.54-.23-8.54-.23,0,0,9.49-1.02,8.54,.23Zm-6.13,8.3s7.29-4.19,7.7-2.76c.44,1.54-7.7,2.76-7.7,2.76Zm2.22-13.6s8.33,.57,4.77,1.57c-.74,.21-4.77-1.57-4.77-1.57Z"/></g></g><g class="cls-7"><g><g><path class="cls-2" d="M48.18,184.94c-.2-.28-.29-.42-.46-.68-.71-.17-1.07-.26-1.8-.44-.05,.19-.06,.29-.09,.49-.24-.06-.36-.1-.6-.16,.13-.95,.43-1.31,.92-2.41,.26,.04,.39,.06,.65,.1,.68,1.31,.98,1.83,1.95,3.26-.23-.06-.35-.09-.58-.15Zm-1.66-2.71c-.25,.56-.37,.8-.53,1.3,.61,.14,.91,.21,1.51,.35-.43-.68-.61-.99-.97-1.65Z"/><path class="cls-2" d="M51.13,185.72c-.09-.22-.14-.32-.22-.53-.11,.36-.44,.41-.82,.31-.53-.14-1.19-.6-1.35-1.44-.15-.79,.37-1.03,.96-.91,.32,.06,.69,.26,.92,.59-.06-.5-.08-.75-.12-1.3,.2,.04,.31,.05,.51,.09,.08,1.11,.1,1.56,.33,2.62,.01,.05,.03,.11,.04,.16,.07,.2,.1,.3,.18,.51-.17-.04-.26-.07-.43-.11Zm-.41-1.33c-.08-.47-.48-.79-.84-.86-.35-.07-.73,0-.61,.65,.11,.61,.55,.9,.9,.99,.35,.09,.69-.06,.6-.54-.02-.1-.03-.15-.04-.25Z"/><path class="cls-2" d="M51.89,185.35c-.12-.54,.41-.49,.86-.45,.32,.03,.63,.03,.59-.27-.03-.24-.21-.45-.57-.53-.29-.06-.51,.04-.47,.36,0,.04,.02,.09,.02,.11-.18-.03-.27-.05-.45-.08-.01-.04-.02-.09-.03-.14-.07-.51,.33-.71,.91-.6,.59,.12,1,.51,1.08,1.09,.06,.4,.09,.6,.17,1.01,.04,.18,.15,.3,.27,.33,.08,.02,.15,0,.2-.03,.03,.14,.05,.22,.08,.37-.11,.05-.26,.04-.37,0-.19-.05-.44-.23-.55-.55,0-.02-.03-.09-.03-.11-.11,.35-.48,.41-.82,.32-.4-.1-.8-.4-.9-.84Zm1.5-.26c-.1,.11-.3,.1-.47,.09-.28-.03-.59-.06-.53,.23,.05,.24,.27,.41,.5,.46,.31,.07,.64-.04,.56-.45-.02-.13-.04-.2-.06-.33Z"/><path class="cls-2" d="M58.06,187.37c-.15-.69-.21-1-.3-1.64-.05-.37-.25-.61-.55-.67-.3-.06-.57,.17-.52,.63,.08,.55,.13,.83,.27,1.43-.19-.04-.29-.07-.48-.11-.15-.65-.2-.95-.29-1.55-.06-.41-.25-.66-.57-.73-.3-.06-.59,.15-.52,.64,.08,.54,.13,.8,.27,1.38-.2-.05-.29-.07-.49-.12-.26-1.06-.31-1.5-.41-2.49l.37,.07c.05,.24,.08,.36,.14,.6,.13-.45,.5-.53,.77-.47,.39,.08,.7,.38,.82,.81,.11-.47,.49-.55,.76-.5,.5,.1,.81,.48,.9,1.11,.09,.66,.15,.98,.3,1.7-.19-.04-.29-.06-.48-.1Z"/><path class="cls-2" d="M63.39,188.42c-.25-1.32-.31-1.85-.46-3.1-.3,1.18-.46,1.67-.64,2.91-.19-.03-.29-.05-.48-.09-.71-1.4-.99-1.97-1.57-3.29,.14,1.25,.19,1.77,.47,3.08-.19-.04-.29-.06-.48-.09-.33-1.55-.37-2.13-.53-3.67,.3,.05,.45,.08,.74,.14,.56,1.35,.83,1.91,1.48,3.22,.21-1.16,.38-1.64,.67-2.85,.3,.05,.44,.07,.74,.12,.17,1.55,.22,2.13,.52,3.7-.19-.03-.28-.05-.47-.08Z"/><path class="cls-2" d="M64.16,187.24c-.12-.84,.21-1.3,.91-1.2,.6,.09,1.09,.46,1.2,1.28,.01,.08,.02,.2,.03,.29-.66-.09-.99-.14-1.66-.24,.09,.59,.38,.95,.8,1.01,.3,.04,.55-.05,.49-.46,0-.05-.02-.08-.03-.12,.16,.04,.24,.06,.4,.11,0,.03,.02,.07,.03,.12,.09,.63-.32,.86-.86,.78-.68-.1-1.19-.7-1.32-1.58Zm1.65,.03s0-.06,0-.1c-.06-.47-.35-.7-.68-.75-.35-.05-.58,.15-.52,.67,.48,.07,.73,.11,1.21,.18Z"/><path class="cls-2" d="M68.07,187.62c0-.06,0-.11,0-.17-.04-.33-.18-.59-.45-.62-.29-.03-.43,.31-.38,.72,.07,.57,.11,.86,.21,1.48-.18-.02-.27-.03-.46-.06-.18-1.13-.24-1.6-.36-2.65,.14,.02,.21,.03,.35,.04,.05,.24,.08,.36,.14,.59,.07-.4,.32-.57,.61-.54,.42,.05,.68,.43,.73,.89,0,.08,.01,.16,0,.24-.16,.03-.23,.05-.39,.08Z"/><path class="cls-2" d="M68.76,186.11c-.02-.18-.03-.27-.04-.45,.2,.02,.3,.03,.5,.05,.02,.18,.03,.27,.04,.45-.2-.02-.3-.03-.5-.05Zm.36,3.1c-.15-1.13-.2-1.6-.3-2.65,.19,.02,.28,.03,.47,.05,.1,1.04,.15,1.51,.29,2.65-.18-.02-.27-.03-.45-.05Z"/><path class="cls-2" d="M69.92,187.95c-.09-.85,.29-1.31,.99-1.26,.6,.04,1.05,.38,1.08,.91,0,.08,0,.15-.01,.23-.15,0-.22,0-.37,0,0-.04,0-.09,0-.13-.03-.43-.33-.6-.65-.62-.4-.03-.62,.28-.56,.89,.06,.62,.35,1.03,.76,1.06,.23,.02,.56-.13,.52-.55,0-.04-.01-.09-.02-.13,.15,.03,.23,.05,.39,.08,.01,.06,.02,.11,.02,.16,.04,.62-.4,.92-.88,.88-.7-.05-1.18-.65-1.26-1.53Z"/><path class="cls-2" d="M72.41,185.78c.19,0,.29,.01,.49,.02,.03,.65,.05,.95,.08,1.56,.17-.39,.49-.54,.83-.53,.49,.01,.82,.3,.83,.82,0,.43-.22,.7-.6,.83,.26,.43,.38,.65,.63,1.11-.2,0-.31,0-.51-.02-.22-.43-.34-.63-.57-1.03-.07,0-.15,0-.21,0-.1,0-.23-.02-.34-.03,.02,.39,.03,.59,.05,1.01-.18,0-.27-.01-.45-.02-.1-1.59-.13-2.16-.22-3.72Zm1.01,2.45c.37,.01,.75-.1,.74-.53,0-.29-.2-.45-.51-.46-.36-.01-.67,.27-.65,.78v.18c.13,.02,.26,.03,.42,.03Z"/><path class="cls-2" d="M74.99,188.91c0-.62,.5-.69,.91-.76,.3-.05,.58-.12,.59-.46,0-.26-.15-.46-.46-.46-.26,0-.47,.17-.47,.52,0,.05,0,.09,0,.12-.16,0-.25,.01-.43,.02,0-.04,0-.09,0-.15,0-.57,.4-.89,.92-.89,.53,0,.89,.33,.88,.96,0,.44,0,.65-.02,1.11,0,.2,.07,.31,.18,.31,.07,0,.14-.04,.2-.09,0,.16,0,.24,0,.41-.12,.09-.26,.12-.37,.12-.18,0-.36-.14-.4-.5,0-.02,0-.1,0-.12-.18,.44-.56,.62-.86,.62-.36,0-.66-.27-.66-.77Zm1.48-.7c-.11,.15-.3,.2-.46,.22-.26,.04-.54,.08-.55,.41,0,.27,.16,.41,.37,.41,.28,0,.62-.23,.63-.68,0-.15,0-.22,0-.36Z"/><path class="cls-2" d="M77.66,188.9c.18,0,.27,0,.45,0-.13,.62-.2,.94-.34,1.66-.15,0-.22,0-.37,0,.11-.72,.16-1.04,.26-1.66Z"/><path class="cls-2" d="M80.55,189.52c-.39-1.65-.63-2.22-1.13-3.81,.2-.01,.31-.02,.51-.03,.41,1.35,.6,1.87,.93,3.21,.48-1.38,.7-1.94,1.13-3.37,.21-.02,.31-.03,.52-.05-.53,1.7-.81,2.31-1.41,4.03-.22,.01-.34,.02-.56,.03Z"/><path class="cls-2" d="M82.45,187.96c.05-.89,.52-1.48,1.25-1.56,.74-.08,1.18,.42,1.11,1.32-.08,.9-.61,1.59-1.32,1.65-.71,.07-1.09-.53-1.04-1.42Zm1.88-.18c.06-.69-.21-1.01-.64-.97-.43,.04-.72,.42-.77,1.11-.04,.68,.2,1.05,.62,1.01,.42-.04,.74-.46,.8-1.15Z"/><path class="cls-2" d="M85.45,185.78c0-.19,.01-.29,.02-.48,.2-.03,.31-.04,.51-.07,0,.2-.01,.29-.02,.48-.2,.03-.3,.04-.51,.06Zm-.28,3.35c.15-1.24,.2-1.74,.26-2.86,.19-.02,.29-.04,.48-.06-.07,1.13-.12,1.63-.28,2.87-.19,.02-.28,.03-.46,.05Z"/><path class="cls-2" d="M86.33,187.53c.1-.92,.55-1.51,1.27-1.61,.62-.09,1.03,.18,.96,.76,0,.08-.03,.17-.06,.26-.16,.04-.23,.06-.39,.09,0-.04,.02-.1,.02-.14,.05-.47-.23-.59-.56-.54-.41,.06-.69,.44-.76,1.11-.07,.68,.12,1.06,.54,1,.24-.03,.62-.28,.68-.73,0-.05,0-.09,.01-.14,.15,0,.23,0,.39,0,0,.06,0,.11-.01,.17-.1,.67-.66,1.11-1.15,1.18-.72,.1-1.05-.46-.95-1.41Z"/><path class="cls-2" d="M88.94,187.17c.13-.91,.58-1.55,1.32-1.67,.64-.1,1.1,.14,.96,1.04-.01,.09-.04,.22-.07,.33-.7,.12-1.04,.18-1.74,.29-.09,.64,.08,.97,.52,.89,.31-.05,.63-.26,.71-.7,0-.05,.01-.09,.01-.13,.16,0,.24,0,.4-.01,0,.03,0,.07-.01,.13-.13,.69-.69,1.11-1.24,1.2-.71,.12-1-.41-.87-1.37Zm1.8-.53s.02-.06,.03-.11c.08-.52-.19-.67-.53-.62-.37,.06-.67,.37-.76,.94,.5-.08,.76-.12,1.27-.21Z"/><path class="cls-2" d="M94.93,187.45c-.01-.33-.02-.48-.05-.78-.67,.14-1,.21-1.66,.35-.17,.35-.26,.53-.45,.9-.21,.04-.32,.06-.54,.11,.93-1.85,1.29-2.5,2.02-4.28,.25-.04,.37-.07,.61-.11,.36,1.57,.55,2.1,.6,3.7-.22,.05-.33,.08-.55,.12Zm-.44-3.15c-.39,.9-.59,1.31-1.04,2.21,.56-.11,.84-.17,1.4-.28-.1-.78-.18-1.13-.36-1.93Z"/><path class="cls-2" d="M96.09,185.81c.2-.91,.72-1.52,1.47-1.67,.65-.13,1.05,.09,.93,.64-.02,.08-.04,.16-.08,.25-.17,.05-.25,.08-.42,.13,.01-.04,.03-.09,.04-.14,.1-.45-.19-.53-.53-.46-.43,.09-.75,.49-.9,1.14-.15,.66,0,1.01,.46,.9,.25-.06,.68-.34,.8-.78,.01-.04,.02-.09,.03-.13,.16-.02,.24-.03,.4-.04,0,.06-.02,.11-.03,.16-.17,.64-.81,1.13-1.34,1.26-.77,.19-1.03-.31-.83-1.25Z"/><path class="cls-2" d="M100.76,185.14c0,.05-.01,.09-.02,.14-.13,.51-.59,.93-1.15,1.08-.59,.16-.78-.09-.6-.77,.16-.58,.22-.84,.33-1.39-.18,.04-.27,.06-.45,.1,.03-.16,.04-.23,.07-.39l.2-.04c.26-.06,.34-.2,.55-.86,.12-.02,.18-.04,.3-.06-.03,.31-.05,.46-.09,.75,.38-.08,.56-.12,.94-.21-.03,.15-.04,.23-.07,.38-.38,.09-.57,.13-.94,.21-.1,.53-.16,.78-.32,1.33-.11,.39-.03,.56,.3,.47,.25-.07,.5-.29,.59-.63,.02-.07,.02-.11,.03-.17,.13,.02,.19,.03,.31,.05Z"/><path class="cls-2" d="M101.24,184.61c.22-.83,.8-1.44,1.6-1.62,.81-.18,1.25,.17,1.03,.94-.22,.77-.96,1.5-1.76,1.73-.8,.23-1.08-.23-.86-1.05Zm2.09-.54c.17-.6-.09-.83-.57-.72-.47,.11-.84,.5-1,1.13-.17,.62,.01,.9,.49,.77,.48-.13,.92-.58,1.08-1.17Z"/><path class="cls-2" d="M105.97,183.24c.02-.06,.04-.1,.05-.15,.07-.28-.01-.46-.32-.38-.33,.08-.6,.45-.7,.81-.14,.51-.22,.76-.45,1.35-.21,.07-.32,.1-.53,.16,.41-1.08,.51-1.48,.69-2.42,.16-.04,.24-.05,.39-.09,0,.2-.01,.3-.03,.5,.22-.4,.55-.65,.87-.73,.47-.11,.67,.13,.58,.51-.02,.07-.04,.14-.08,.21-.19,.09-.29,.14-.49,.23Z"/></g><path class="cls-2" d="M113.28,177.42c-.08-1.14-.08-1.63-.08-2.41-.15,.53-.18,.43-.32,1.37,.04-1.3,.03-1.14,.1-1.85-.1,.34-.15,.51-.23,.85-.1-.44-.14-.65-.23-1.07-.16,.78-.23,1.18-.3,2-.06-.65-.06-.97-.06-1.58-.16,.88-.21,1.31-.32,2.74-.02-1.52-.04-1.94,0-2.87-.24,1.16-.33,2.09-.46,3.74-.06-1.52-.06-2.46-.04-3.52-.22,.85-.28,1.19-.49,2.65-.05-.8-.07-1.22-.14-1.68-.08,0-.12,0-.2,0-.12,.64-.21,1.38-.35,2.38-.05-.32-.07-.49-.1-.87-.06,.27-.08,.4-.14,.64-.03-1.09-.04-1.69-.1-2.32-.18,.04-.26,.06-.44,.1-.08,.29-.12,.44-.18,.74-.08-.56-.1-.83-.12-1.38-.09-.11-.14-.16-.22-.27-.1,.21-.15,.32-.24,.53-.13-.05-.2-.07-.34-.11-.05,.37-.07,.56-.09,.94-.1-.38-.14-.56-.22-.93-.15,.67-.12,.65-.35,2.07,.04-1.47-.1-1.42-.15-2.1-.14,.35-.21,.52-.33,.87-.1-.28-.14-.42-.22-.7-.14,.58-.06,.29-.29,1.62,.02-1.19-.15-.93-.22-1.43-.16,.65-.16,.8-.43,2.2,0-1.31-.12-1.47-.21-2.06-.19-.05-.28-.07-.47-.12-.1,.21-.16,.31-.25,.52-.07-.22-.1-.33-.16-.55-.11,.36-.16,.54-.24,.9-.05-.25-.07-.38-.11-.63-.08,.66-.05,.89-.25,2.34,.08-1.34,0-1.6-.02-2.2-.1,.8-.16,1.61-.38,3.18,.04-1.2,.09-2.09,0-2.69-.12,.72-.31,1.89-.56,3.24,.08-1.92,.04-2.96,0-3.97-.2,.31-.29,.47-.47,.79-.04-.21-.05-.32-.08-.53-.08,.36-.12,.54-.17,.91-.12-.29-.17-.44-.26-.73-.1,.44-.15,.66-.2,1.09-.14-.38-.2-.58-.3-.96-.1,.53-.04,.47-.25,1.74,.04-1.07-.07-1.07-.14-1.5-.06,.78-.15,1.83-.35,3.37,.08-1.51,.11-2.56,.05-3.31-.07,.32-.09,.48-.13,.8-.05-.39-.07-.58-.07-.97-.13,.24-.19,.36-.31,.61-.06-.13-.08-.19-.14-.32-.02,.37,.06,.2-.05,1.15,.09-1.41-.08-1.04-.1-1.58-.1,.77-.06,1.12-.29,2.83,.07-1.19,.05-1.71,0-2.23-.04,.63-.11,1.45-.28,2.8,.08-1.33,.1-2.15,.05-2.76-.05,.28-.08,.42-.11,.7-.17-.55-.21-.83-.28-1.4-.04,.32-.05,.48-.07,.79-.08-.22-.11-.33-.17-.55-.07,.32-.1,.47-.15,.78-.12-.25-.18-.38-.28-.64,0,.5,.17,.06,.07,1.36,0-.89-.15-.62-.24-.95-.07,.36,0,.1-.14,1.01,.08-1.03-.05-.71-.06-1.1-.06,.76-.1,1.62-.29,3.21,.12-1.96,.06-2.7,.06-3.64-.12,.87-.09,1.35-.32,3.25,.09-1.58,.04-2.15,.02-2.86-.06,.65-.03,.95-.2,2.44,.08-1.49,0-1.78-.05-2.42-.09,.47,0,.13-.19,1.34,.07-1.63-.15-1.08-.19-1.7-.09,.28-.13,.42-.2,.7-.07-.29-.09-.43-.14-.73l-.21,.03c-.07,.35-.11,.52-.15,.86-.1-.19-.14-.29-.23-.49-.08,.62,.02,.42-.16,1.95-.02-.96-.12-.97-.22-1.34-.04,.21-.06,.31-.08,.52-.08-.21-.11-.32-.17-.54-.04,.28-.06,.42-.07,.7-.08-.09-.12-.14-.19-.23-.06,.23-.08,.33-.19,.89,0-.49-.04-.6-.09-.79-.01,.46-.12,1.35-.24,2.35,.04-1.68-.03-2.33-.09-3.12-.03,.28-.04,.41-.04,.68-.12-.45-.15-.68-.21-1.14-.08,.55-.12,.83-.13,1.36-.08-.11-.11-.17-.18-.28-.03,.33-.01,.39-.11,1.21-.03-.66-.1-.76-.19-1.02-.08,.23-.09,.16-.22,.73,.05-1.26-.09-.88-.12-1.38-.08,.4-.11,.59-.15,.98-.12-.38-.16-.58-.23-.98-.08,.15-.11,.23-.19,.38-.09-.08-.13-.12-.22-.19-.15,.28-.22,.41-.35,.68-.06-.23-.09-.35-.13-.59-.08,.36-.12,.54-.17,.88-.03-.42-.02-.63,0-1.07-.15,.48-.22,.72-.31,1.18-.07-.48-.08-.74-.08-1.25-.13,.55-.19,.82-.24,1.34-.12-.42-.16-.64-.21-1.08-.08,1.05-.08,2.21-.21,4.17,0-1.76-.05-2.95-.12-3.88-.13,.11-.19,.17-.31,.28-.02-.3-.02-.45-.02-.75-.13-.1-.19-.15-.31-.26-.1,.2-.15,.3-.25,.5-.05-.1-.08-.15-.13-.24-.13,.33-.2,.49-.31,.81-.05-.13-.07-.2-.12-.33-.09,.29-.12,.44-.19,.72-.07-.18-.1-.27-.16-.45-.06,.45-.01,.16-.1,1.23-.04-1.35-.18-.92-.24-1.49-.06,.16-.09,.24-.15,.4-.05-.15-.08-.23-.13-.38-.08,.47-.11,.71-.13,1.15-.06-.16-.09-.24-.14-.41-.04,.38-.02,.46-.09,1.33-.02-.79-.08-.89-.13-1.23-.09,.57-.13,1.26-.26,2.42-.05-.92-.07-1.66-.17-2.09-.05,.33-.09,.73-.18,1.45-.1-1.36-.23-1.52-.33-2.15-.06,.29-.09,.43-.12,.7-.1-.22-.14-.33-.22-.56-.09,.41-.12,.61-.15,1-.11-.32-.15-.48-.22-.82-.07,.41-.05,.22-.14,1.16-.06-.55-.13-.48-.2-.71,0,1.14-.05,3.23-.12,4.98-.03-2.28-.18-4.3-.16-5.87-.18,1.42-.14,3.08-.25,5.26-.06-1.63-.1-3.35-.19-4.36-.05,.48-.06,.93-.13,1.92-.02-1.44-.1-1.74-.1-2.46-.08,.18-.11,.26-.18,.44-.04-.44-.04-.67-.03-1.13-.09,.46-.13,.69-.18,1.14-.05-.23-.07-.35-.1-.59-.11,.5-.16,.75-.21,1.21-.03-.23-.05-.34-.06-.58-.07,.38-.08,.3-.15,1.14-.04-.76-.1-.69-.15-1.03-.05,.39-.04,.43-.09,1.26-.06-1.14-.14-1.06-.19-1.6-.1,.16-.14,.24-.23,.4-.05-.19-.08-.28-.12-.47-.1,.77-.08,1.13-.13,2.61-.11-.94-.19-1.43-.31-1.9-.02,.4-.01,.7-.03,1.52-.04-.82-.09-1.11-.13-1.5-.06,.22-.08,.33-.12,.55-.12-.44-.15-.67-.2-1.15-.09,.45-.13,.67-.17,1.09-.08-.06-.13-.09-.21-.16-.02,.19-.03,.28-.05,.7-.05-.51-.09-.56-.15-.79-.04,.09-.06,.13-.1,.22-.02-.33-.01-.51,0-.86-.13,.86-.11,1.58-.18,3.09-.04-.27-.06-.4-.09-.69,0,.51-.02,.75-.03,1.2-.06-1.12-.1-2.18-.16-2.82-.04,.18-.05,.17-.09,.55-.01-1.19-.04-.91,0-1.49-.05,.08-.07,.12-.12,.21-.04-.15-.06-.23-.09-.38-.07,.27-.11,.41-.17,.67-.08-.1-.12-.14-.2-.24-.04,.15-.07,.22-.1,.37,0-.34,0-.52,.02-.88-.07,.35-.1,.53-.15,.87-.03-.03-.05-.05-.09-.09-.03,.16-.04,.23-.06,.39-.06-.07-.1-.1-.16-.17-.06,.39-.06,.48-.1,1.27-.08-1.05-.14-1.05-.17-1.58-.06,.07-.09,.11-.15,.18,0-.18,0-.27,0-.46-.11,.36-.15,.54-.23,.89-.03-.11-.04-.17-.07-.28-.03,.37-.02,.33-.03,1.07-.05-.49-.09-.52-.13-.75-.05,.14-.07,.2-.11,.34-.05-.5-.04-.77,0-1.32-.03-.15-.04-.22-.06-.37-.07,.08-.11,.11-.18,.19-.04-.2-.06-.3-.09-.5-.07,.21-.1,.32-.17,.52-.07-.18-.1-.27-.17-.45-.04,.29-.06,.44-.08,.72-.08-.07-.12-.11-.2-.19-.08,.41-.11,.61-.14,1-.09-.14-.13-.21-.21-.35-.04,.26-.06,.39-.08,.63-.05-.25-.07-.38-.09-.65-.07-.17-.11-.26-.17-.44-.07,.4-.1,.6-.13,.97-.14-.13-.2-.2-.33-.34-.09,.28-.13,.42-.2,.68-.06-.39-.08-.59-.09-1.02-.04,.31-.06,.47-.07,.77-.06-.25-.08-.39-.12-.66-.06,.62-.04,.73-.02,1.85-.05-.4-.08-.69-.13-.89-.05,.43-.07,1.19-.12,1.95-.11-1.81-.22-2.38-.15-3.53-.1,.2-.14,.3-.23,.5,0-.14-.01-.21-.02-.36-.08,.29-.11,.44-.17,.72-.03-.26-.04-.39-.05-.66-.12,.37-.17,.55-.25,.89,0-.26,0-.39,.03-.65-.08,.38-.12,.57-.16,.93-.05-.31-.08-.46-.12-.79-.04,.31-.06,.46-.08,.75-.08-.25-.11-.38-.17-.64-.04,.48-.05,.28-.03,1.19-.12-.42-.18-.35-.28-.56,0,.61,.06,1.36,.1,2.38-.11-.61-.18-.94-.3-1.66-.02,.86-.04,1.24-.07,1.94-.11-.55-.16-.84-.28-1.47-.07,.33-.1,.49-.17,.79-.04-1.38-.1-1.84-.01-2.69-.07-.16-.11-.25-.18-.42-.11,.37-.16,.55-.24,.9-.04-.17-.06-.25-.09-.43-.09,.31-.13,.46-.2,.75-.07-.23-.1-.35-.16-.6-.04,.2-.06,.3-.09,.5-.05-.35-.06-.53-.07-.91-.09,.15-.13,.22-.22,.36-.06-.19-.09-.29-.15-.5-.15,0-.23,0-.38,0-.08,.27-.12,.41-.19,.67-.04-.19-.06-.29-.1-.49-.06,.44-.08,.65-.08,1.05-.11-.41-.14-.63-.2-1.08-.04,.43-.06,.64-.05,1.03-.06-.35-.07-.53-.09-.9-.04,.14-.05,.22-.08,.36-.05-.23-.07-.35-.1-.6-.1,.2-.15,.29-.25,.48-.02-.16-.03-.25-.04-.42-.1,.48-.14,.71-.18,1.14-.07-.3-.09-.45-.13-.77-.14,.67-.14,.96-.13,2.09-.16-.85-.25-1.21-.33-1.69-.06,.25-.12,.14-.13,.63-.17-1.43-.06-1.1,.02-1.91-.11,.15-.16,.22-.27,.36-.05-.13-.08-.2-.12-.33-.08,.2-.12,.3-.19,.49-.05-.1-.07-.15-.12-.25-.11,.39-.16,.57-.24,.93-.09-.35-.13-.53-.19-.91-.1,.32-.14,.48-.21,.78-.05-.16-.08-.24-.12-.41-.11,.5-.19,.35-.16,1.26-.19-.96-.17-.81-.21-1.34-.11,.46-.15,.67-.19,1.08-.06,.46,.02,1.37,.02,2.15-.17-.94-.34-1.82-.42-2.4-.07,.56,.03,1.43,.05,2.36-.15-1.06-.32-1.91-.35-2.57-.06,.12-.09,.18-.14,.29-.06-.51-.05-.8-.01-1.39-.04,.21-.06,.31-.09,.51-.06-.26-.08-.39-.12-.67-.1,.29-.15,.43-.24,.71-.06-.18-.09-.27-.14-.45-.08,.31-.11,.46-.16,.74-.08-.17-.12-.26-.19-.44-.05,.3-.06,.45-.08,.72-.1-.3-.13-.45-.2-.78-.06,.36-.08,.53-.1,.86-.04-.27-.06-.41-.07-.7-.12,.39-.23,.25-.23,.98-.21-1.36-.1-1.09-.03-1.87-.09,.24-.13,.35-.21,.58-.06-.25-.09-.38-.13-.65-.23,.83-.39,.66-.31,2.07-.11-.58-.13-.61-.16-.92-.03,.52,.04,1,.13,1.89-.17-.7-.3-1.24-.39-1.63-.07,.72,.09,1.9,.13,3.02-.31-1.78-.61-2.87-.58-4.18-.09,.22-.13,.33-.2,.53-.04-.23-.06-.35-.09-.6-.11,.27-.16,.4-.25,.65-.08-.15-.12-.22-.2-.37-.08,.44-.18,.23-.11,1.06-.1-.38-.1-.3-.14-.49-.1,.49-.04,1.05-.03,1.9-.16-.83-.29-1.41-.35-1.89-.05,.1-.07,.15-.11,.25-.04-.61,0-.97,.11-1.71-.07,.16-.1,.24-.16,.4,0-.45,0-.69,.03-1.17-.38,1.63-.34,2.26-.12,4.51-.26-1.58-.45-2.28-.4-3.34-.06,.27-.08,.4-.12,.65-.05-.56-.04-.87,0-1.5-.13,.32-.19,.48-.29,.79,.03-.29,.05-.43,.1-.73-.17,.5-.25,.75-.35,1.2-.03-.34-.04-.51-.03-.88-.11,.35-.15,.52-.22,.84-.03-.37-.03-.57-.02-.98-.06-.12-.09-.18-.15-.29-.19,.69-.26,1.02-.32,1.6-.06-.32-.08-.49-.1-.84-.05,.23-.07,.34-.11,.55-.03-.31-.03-.47-.02-.8-.08,.24-.11,.36-.18,.58-.04-.23-.06-.35-.09-.59-.08,.32-.11,.48-.16,.77-.03-.27-.03-.41-.04-.7-.09,.29-.14,.42-.2,.68-.04-.54-.02-.84,.03-1.46-.16,.58-.23,.86-.3,1.37-.04-.2-.06-.3-.09-.5-.06,.22-.09,.33-.13,.54-.06-.14-.09-.21-.14-.36-.1,.54-.11,.67-.04,1.63-.24-1.05-.3-1.17-.35-1.79-.12,.65-.1,.87-.02,1.97-.15-.78-.24-1.09-.29-1.53-.04,.53,.05,1.06,.13,1.97-.28-1.78-.39-2.16-.27-3.37-.12,.16-.18,.23-.3,.38-.04-.19-.06-.29-.09-.5-.07,.33-.1,.49-.15,.79-.01-.34-.01-.53,0-.9-.09,.34-.13,.5-.19,.82,.02-.27,.04-.41,.08-.7-.13,.26-.18,.39-.29,.64-.04-.25-.06-.38-.08-.64-.07,.29-.1,.44-.15,.71-.05-.27-.07-.41-.1-.69-.27,.94-.37,.95-.3,2.44-.32-1.45-.37-1.49-.38-2.41-.16,.7-.22,1.04-.21,1.59-.17-.51-.21-.81-.25-1.44-.13,.45-.18,.67-.23,1.06-.11-.68-.09-1.09-.03-1.94-.14,.43-.2,.64-.29,1.03,0-.36,0-.55,.02-.93-.15,.4-.22,.6-.33,.97,0-.34,.01-.52,.05-.9-.1,.23-.15,.34-.23,.56-.04-.26-.05-.39-.08-.66-.12,.43-.17,.64-.24,1.03-.07-.35-.09-.53-.13-.91-.19,.89-.33,.65-.18,2.06-.31-1.48-.24-1.25-.2-2.2-.15-.03-.22-.05-.38-.08-.1,.34-.14,.51-.22,.83-.06-.26-.08-.4-.12-.68-.12,.67-.16,.98-.15,1.53-.1-.63-.08-1-.02-1.77-.18,.65-.25,.97-.32,1.52-.05-.42-.06-.65-.05-1.13-.14,.62-.19,.92-.2,1.42-.14-.49-.18-.77-.21-1.36-.08,.17-.11,.26-.18,.42-.03-.26-.03-.39-.04-.67-.12,.26-.17,.39-.27,.63,0-.32,0-.49,.01-.83-.11,.13-.16,.2-.26,.33-.05-.08-.07-.12-.11-.21-.06,.57-.07,.84-.04,1.32-.1-.49-.12-.76-.12-1.34-.15,.64-.2,.94-.23,1.46-.17-.73-.17-1.19-.12-2.13-.27,1-.39,1.49-.39,2.25-.13-.64-.12-1.04-.06-1.87-.16,.49-.22,.73-.31,1.17,0-.52,.02-.82,.1-1.42-.15,.18-.23,.27-.38,.44-.06-.17-.09-.26-.14-.44-.15,.52-.21,.77-.29,1.23-.05-.34-.06-.52-.07-.9-.09,.42-.12,.62-.16,1-.07-.44-.09-.68-.1-1.17-.12,.38-.17,.56-.25,.91-.06-.3-.08-.45-.12-.78-.07-.12-.1-.18-.17-.3-.11,.46-.16,.68-.22,1.09-.04-.16-.06-.24-.09-.41-.04,.27-.06,.4-.08,.65-.11-.21-.16-.32-.25-.54-.08,.32-.11,.47-.16,.76-.11-.52-.14-.82-.16-1.44-.09,.67-.12,.99-.08,1.54-.14-.57-.17-.9-.19-1.59-.14,.81-.19,1.2-.15,1.83-.17-.5-.22-.8-.28-1.43-.05,.58-.06,.85-.01,1.32-.13-.47-.16-.74-.19-1.31-.15,1.09-.02,1.59,.05,2.82-.19-.95-.37-1.42-.45-2.21-.07,.33-.1,.48-.12,.76-.17-.54-.21-.86-.25-1.54-.13,.2-.2,.3-.32,.5-.08-.38-.11-.59-.16-1.01-.08,.24-.11,.36-.18,.59-.09-.25-.13-.38-.21-.64-.1,.32-.15,.47-.23,.77-.1-.25-.15-.38-.24-.64-.13,.61-.18,.91-.21,1.43-.14-.44-.2-.68-.28-1.18-.07,.46-.1,.68-.12,1.09-.03-.41-.03-.63,0-1.1-.24,1.3-.1,1.89-.08,3.11-.82-2.99-.02-6.11,.45-9.09-.04,1.05-.12,1.67-.23,2.88,.23-.6,.35-.9,.57-1.47,.01,.6,.01,.91,.02,1.53,.12-.27,.18-.4,.31-.67,.04,.32,.06,.49,.09,.81,.21-.55,.32-.83,.53-1.35,.03,.49,.05,.75,.07,1.26,.47-1.33,.74-2.01,1.08-3.04,.09,1.03,.04,1.67,0,2.92,.26-.74,.4-1.11,.63-1.78,.05,.5,.07,.77,.1,1.3,.31-.95,.47-1.42,.69-2.18,.07,.78,.05,1.25,.03,2.19,.25-.47,.37-.7,.6-1.13,.05,.53,.06,.82,.09,1.39,.17-.05,.26-.07,.43-.12,0,.86,0,1.31,.02,2.18,.2-1,.33-1.53,.54-2.48-.07,1.01-.14,1.57-.19,2.62,.27-1.05,.45-1.62,.73-2.62-.08,.95-.15,1.48-.22,2.47,.37-1.41,.64-2.18,.96-3.38-.03,.83-.09,1.31-.17,2.27,.42-2.82,.72-5.8,1.51-8.56-.52,2.73-.52,5.67-.68,8.42,.18-.18,.27-.27,.44-.44-.04,.63-.07,.96-.11,1.61,.43-1.23,.7-1.88,1.07-2.93,.03,.77,.02,1.2,0,2.07,.2-.65,.31-.97,.49-1.56-.01,.68-.04,1.06-.08,1.8,.29-.76,.44-1.15,.7-1.83-.04,.77-.09,1.21-.16,2.06,.29-.57,.44-.86,.72-1.39,.03,.79,.03,1.22,.05,2.05,.15-.27,.22-.41,.38-.68,.06,.34,.08,.51,.14,.85,.19-.48,.29-.72,.49-1.19-.04,.61-.06,.93-.09,1.54,.33-1.06,.54-1.63,.85-2.6,0,.78-.04,1.2-.08,2.04,.33-.98,.53-1.48,.8-2.34-.04,.91-.11,1.44-.21,2.47,.17-.13,.25-.19,.42-.31,.08,.37,.12,.56,.2,.94,.12-.4,.18-.6,.3-1,.05,.41,.07,.62,.12,1.04,.32-.99,.52-1.5,.82-2.41-.07,.95-.15,1.48-.24,2.5,.35-1.19,.57-1.82,.86-2.88-.13,1.19-.3,1.92-.49,3.25,.4-.97,.63-1.48,1.03-2.4-.1,1.05-.19,1.64-.28,2.74,.31-.86,.5-1.31,.83-2.16-.14,.87-.22,1.34-.34,2.23,.29-.69,.45-1.05,.76-1.74-.11,.72-.17,1.09-.26,1.81,.12-.36,.18-.54,.31-.91-.05,.43-.08,.65-.12,1.08,.35-.81,.55-1.23,.92-2.03-.07,.81-.11,1.24-.16,2.06,.39-1.4,.68-2.18,1.02-3.44-.18,1.32-.39,2.13-.61,3.58,.51-1.85,.96-2.93,1.27-4.42-.08,1.41-.37,2.4-.67,4.16,.44-1.34,.73-2.06,1.1-3.25-.17,1.23-.37,1.98-.6,3.35,.21-.65,.32-.99,.54-1.63-.05,.69-.08,1.05-.12,1.75,.35-.87,.56-1.33,.92-2.18-.1,.87-.17,1.34-.25,2.24,.56-1.67,.97-2.6,1.35-3.99,.02,1.5-.21,2.52-.36,4.31,.17-1.02,.3-1.56,.48-2.55-.09,.85-.16,1.3-.25,2.18,.45-1.36,.74-2.08,1.1-3.29-.09,1.21-.24,1.94-.42,3.3,.26-.74,.4-1.13,.66-1.85-.04,.74-.07,1.12-.11,1.88,.29-.62,.44-.93,.73-1.54-.03,.69-.05,1.05-.07,1.74,.47-1.46,.79-2.25,1.14-3.53-.03,1.13-.14,1.8-.28,3.09,.3-1.18,.48-1.8,.69-2.85-.11,1.1-.25,1.73-.44,2.96,.26-.78,.41-1.18,.66-1.93-.05,.67-.09,1.02-.16,1.71,.16-.23,.24-.34,.4-.57,.03,.34,.05,.52,.08,.86,.16,.03,.24,.05,.4,.08,.25-.82,.38-1.24,.61-2.02-.03,.56-.06,.84-.1,1.42,.15-.62,.23-.93,.37-1.51-.04,.61-.08,.92-.14,1.56,.22-.57,.33-.85,.53-1.4,0,.64,0,.98-.01,1.65,.1-.26,.15-.38,.24-.64,.01,.29,.02,.44,.03,.74,.31-1.18,.49-1.78,.7-2.83-.08,1-.19,1.56-.37,2.68,.12,.04,.18,.06,.3,.1,.13-.62,.19-.93,.31-1.52-.07,.63-.12,.96-.21,1.61,.21-.04,.31-.06,.52-.1,.12-.53,.18-.79,.29-1.3-.04,.5-.06,.76-.1,1.28,.25-.77,.38-1.16,.6-1.88-.03,.84-.07,1.29-.13,2.17,.16-.49,.25-.74,.41-1.22,.01,.44,.02,.66,.03,1.11,.35-1.38,.58-2.09,.75-3.28,.01,1.23-.12,1.97-.28,3.4,.2,.02,.3,.03,.51,.06,.21-.75,.32-1.13,.51-1.86-.03,.67-.05,1.02-.09,1.72,.14-.24,.22-.37,.36-.61,.05,.25,.07,.38,.12,.63,.19-.5,.29-.74,.47-1.23-.02,.5-.04,.75-.07,1.25,.36-1.25,.57-1.89,.8-3.01-.07,1.13-.2,1.79-.39,3.05,.26-.74,.39-1.12,.63-1.84-.04,.7-.08,1.07-.14,1.8,.13-.3,.19-.44,.32-.74,0,.32,0,.48-.02,.81,.27-1.13,.44-1.71,.62-2.74-.09,1.03-.2,1.6-.37,2.71,.31-.96,.49-1.44,.75-2.34-.06,.93-.14,1.44-.25,2.42,.12-.28,.19-.42,.31-.7,.03,.27,.05,.41,.08,.69l.23-.04c.15-.46,.23-.69,.38-1.15,0,.5,0,.76,0,1.26,.45-1.5,.75-2.28,1-3.58,.04,1.28-.11,2.05-.27,3.51,.33-1.12,.52-1.7,.77-2.74-.02,1.07-.11,1.66-.21,2.81,.17-.42,.26-.64,.43-1.06,0,.43,0,.65,.02,1.08,.11-.41,.17-.61,.28-1.02-.02,.41-.04,.62-.06,1.03,.21-.49,.32-.73,.52-1.21-.04,.49-.06,.74-.09,1.22,.26-.98,.41-1.49,.63-2.43-.05,.9-.12,1.38-.21,2.32,.26-1.02,.41-1.54,.62-2.51-.03,.98-.1,1.5-.18,2.52,.19-.75,.29-1.13,.47-1.85-.06,.68-.1,1.03-.17,1.73,.12-.02,.19-.03,.31-.05,.15-.65,.23-.98,.38-1.61-.04,.64-.08,.97-.13,1.61,.19-.53,.29-.8,.47-1.32-.02,.5-.04,.75-.07,1.26,.31-1.27,.51-1.92,.68-3.08,0,1.18-.13,1.85-.26,3.13,.21-.59,.32-.88,.52-1.46-.01,.54-.03,.82-.04,1.36,.23-.54,.35-.81,.57-1.33,.02,.51,.02,.76,.04,1.27,.49-1.83,.98-2.37,.78-4.55,.5,2.16,.15,2.69-.04,4.47,.3-1.04,.48-1.57,.71-2.54,.04,.96-.01,1.47-.04,2.47,.2-.58,.3-.87,.49-1.43,.03,.57,.04,.86,.07,1.44,.14-.43,.22-.64,.36-1.06,0,.43,0,.65,0,1.09,.21-.99,.35-1.49,.51-2.43,.01,.96-.05,1.47-.09,2.45,.19-.01,.29-.02,.48-.04,.18-1.02,.3-1.55,.42-2.53-.02,1.02-.1,1.56-.17,2.61,.2-.47,.3-.71,.5-1.17,0,.44,0,.66,.02,1.1,.17-.05,.25-.07,.42-.12,.18-.92,.3-1.39,.44-2.28-.03,.86-.09,1.31-.15,2.19,.19-.55,.29-.83,.47-1.37,.01,.49,.01,.74,.03,1.24,.18,0,.27,0,.44,0,.11-.72,.18-1.08,.28-1.79-.03,.72-.07,1.09-.12,1.81l.21-.07c.21-1.31,.4-2,.42-3.21,.12,1.19,.01,1.85-.06,3.12,.15,0,.22,0,.37,.01,.14-.86,.24-1.3,.35-2.13,0,.83-.06,1.27-.1,2.12l.38-.07c.1-.59,.16-.88,.25-1.47-.01,.58-.03,.88-.05,1.46l.23-.03c.09-.54,.15-.81,.24-1.35-.01,.53-.03,.8-.05,1.32,.14-.01,.22-.02,.36-.03,.12-.71,.2-1.07,.3-1.77-.02,.71-.05,1.08-.08,1.8,.19-.07,.28-.1,.47-.17,.16-.99,.28-1.49,.36-2.44,.05,.96,0,1.47-.03,2.46l.25-.08c.18-.86,.3-1.29,.43-2.13,.05,.34,.07,.51,.1,.85,.1-.43,.14-.64,.21-1.05,.12,.6,.16,.9,.24,1.51,.07-.4,.1-.59,.15-.99,.05,.46,.06,.69,.09,1.16,.14-.53,.22-.8,.34-1.32,.09,.46,.13,.69,.21,1.16,.11-.28,.17-.42,.27-.69,.1,.22,.15,.33,.25,.56,.09-.22,.14-.32,.23-.54,.04,.2,.07,.3,.11,.49,.19-.81,.3-1.22,.39-2.01,.08,.64,.08,.96,.08,1.62,.13-.74,.2-1.1,.24-1.82,.1,.69,.1,1.05,.11,1.77,.14-.36,.21-.54,.33-.89,.11,.49,.15,.74,.24,1.23,.17-.32,.25-.48,.41-.8,.05,.27,.07,.41,.11,.68,.14-.43,.2-.65,.32-1.08,.07,.29,.1,.44,.17,.73,.17-.77,.25-1.16,.32-1.91,.18,.54,.24,.82,.34,1.38,.13-.58,.2-.87,.26-1.44,.13,.89,.11,1.35,.11,2.26,.17-.71,.27-1.06,.39-1.76,.08,.64,.1,.96,.13,1.6,.11-.58,.16-.87,.24-1.44,.09,.63,.11,.94,.16,1.58,.13-.69,.2-1.04,.29-1.72,.11,.61,.14,.92,.21,1.53,.16-.32,.24-.47,.39-.79,.01,.28,.02,.42,.03,.71,.12-.64,.19-.96,.27-1.6,.1,.52,.13,.77,.2,1.3,.19-.96,.3-1.44,.32-2.38,.11,.4,.15,.6,.21,1,.03-.19,.04-.29,.05-.48,.07,.22,.1,.33,.15,.55,.1-.5,.14-.75,.18-1.24,.18,.89,.17,1.34,.18,2.24,.15-.51,.22-.77,.34-1.28,.1,.49,.14,.73,.21,1.22,.1-.22,.15-.33,.25-.55,.07,.32,.09,.47,.15,.79,.15-.31,.23-.46,.37-.77,.06,.17,.08,.25,.14,.42,.17-.71,.25-1.06,.35-1.77,.09,.27,.13,.4,.2,.67,.08-.35,.11-.52,.17-.87,.08,.63,.08,.94,.08,1.58,.13-.51,.19-.77,.27-1.29,.05,.4,.06,.6,.08,1,.06-.16,.09-.24,.15-.4,.11,.44,.16,.65,.25,1.09,.21-.61,.32-.91,.5-1.53,.09,.53,.11,.8,.15,1.34,.12-.41,.18-.62,.29-1.04,.14,.36,.2,.53,.32,.9,.11-.24,.16-.37,.26-.61,.15,.13,.22,.19,.36,.32,.17-.73,.25-1.09,.34-1.82,.18,.58,.24,.87,.35,1.46,.07-.9,.1-1.35,0-2.27,.13,.48,.18,.73,.24,1.21,.09-.5,.13-.75,.16-1.26,.23,.39,.33,.59,.51,.98,.1-.36,.15-.54,.22-.91,.17,.47,.23,.7,.34,1.17,.09-.23,.13-.35,.2-.58,.12,.69,.14,1.04,.18,1.73,.18-.73,.27-1.1,.38-1.85,.09,.55,.11,.82,.14,1.37,.19-.59,.28-.88,.42-1.48,.11,.58,.14,.87,.2,1.45,.16-.5,.24-.75,.36-1.27,.11,.52,.14,.78,.2,1.3,.16-.7,.23-1.05,.32-1.76,.04,.82,.01,1.21-.04,2.02-.29,1.75-.53,2.29-.57,4.93Z"/></g></g><path class="cls-12" d="M99.53,102.4c-3.88,6.72-7.46,10.41-7.46,10.41,0,0,3.92-1.95,4.24-2.02l7.49-1.98c.11-.02,.21-.1,.26-.2l1.55-3.29s.04-.06,.06-.09l3.62-3.87s.05-.07,.07-.11l4.02-9.71c.11-.27,.5-.3,.66-.05l.78,1.22c.19,.06,.31,.1,.5,.15,1.04-.43,1.78-.97,2.29-1.44,3.21-2.95,1.39-6.02,1.81-8.64,.05-.31,.47-.4,.67-.14,.93,1.24,1.22,2.05,2.07,2.26l1.84-8.8s.02-.07,.04-.11c.91-1.42,21.37-34.6-24.73-63.41-.08-.05-.14-.12-.16-.21-.37-1.57-4.68-16.51-32.89-11.23-.03,0-.05,.01-.08,.02-1.1,.46-27.93,11.51-41.81,7.83-.14-.04-.29,0-.38,.12l-8.94,11.06c-.2,.24,0,.59,.32,.57l4.95-.33c.35-.02,.54,.4,.27,.62C16.54,24.41-.16,39.96,3.55,62.51c.05,.33,.52,.41,.69,.12l1.57-2.65c.18-.31,.68-.2,.69,.16,.14,4.21,.99,17.68,6.39,23.32,.03,.03,.05,.06,.06,.1,.27,.69,3.32,8.15,8.49,14,3.55,4.02,4.19,2.25,4.2,.55,0-.38,.52-.5,.7-.17l11.12,20.99c.13,.25,.49,.26,.64,.02l1.68-2.63c.12-.18,.37-.22,.54-.09l7.55,5.67c.29,.22,.69-.06,.58-.39l-1.37-4.07c-.09-.26,.15-.51,.42-.46l9.28,1.89c-1.94-.77-1.64-1.2-3.22-2.15-3.96-2.38-9.1-6.2-13.21-12.05-5.26-7.49-7.54-15.1-8.81-19.97-.05-.19-.48,.39-1.55,.28-1.16-.12-5.13,1.54-3.45-7.25,.02-.09-1.21-2.65-2.2-4.45-.68-1.24-3.91-8.4-.5-11.05,8.33-3.42,9.16,5.6,8,7.89,.25,.62,1.45,5.58,1.84,6.35,.14,.27,.32-1.52,.25-2.86,.42-.86,.81-4.85,.58-6.21-.03-1.99,.17-5.13,1.49-8.7,.54-1.47,1.6-3.87,3.59-6.41,2.81-3.6,8.17-8.34,10.3-7.09,.41,.24,.94,1.08,1.06,2.65l1.28,3.69c.08,.29,2.6-3.62,2.78-3.87l2.08-3.02v1.79c0,.31,.05,.76,.61,.27,1.62-.06,7.52-6.34,7.52-6.34,.23-.2,.78-.29,.79,.01,.07,2.15-.06,9.3,4.1,10.91,.3,.12,1.46-.03,1.33-.32-1.85-4.27-.22-10.57,.66-13.23,.06-.18,3.53,3.41,3.69,3.51l.9-.72,5.04,2.85c1.16,.81,1-.27,1.02-.52l-.22-2.32c.03-.24,1.17,.33,1.4,.43,2.21,.95,4.17,2.35,5.22,3.16,1.64,1.26,1.5,1.89,3.11,2.9,2.2,1.37,2.01-.12,4.15,.97,.4,.2,4.9,2.58,6.37,7.46,.43,1.41,.48,2.66,.46,3.5,0,.05-.01,.09-.03,.13-.79,1.63-.85,3.64-1.11,5.47,.26,1.95,.64,2.95,.38,4.31-.06,.31-.47,9.92-.04,7.98,.35-1.58,1.61-7.8,2.53-9.82,.17-1.24,1.55-5.95,4.35-4.37,.85,.48,1.96,.82,2.39,1.7,.64,1.32,.45,1.84-1.73,5.18-.56,.94-1.85,2.94-2.18,5.12-.94,4.1-1.11,5.07-1.1,7.3,0,.86-.71,1.94-1.67,1.83-.23-.03-1.67,.54-1.92,2.25-.13,.89-.2,3.79-.38,4.58-.37,2.05-.3,1.56-2.56,10.04,0,.01-.66,1.72-.66,1.73Z"/><path class="cls-6" d="M52.44,48.66s-6.43-9.19,5.22-14.87c0,0,4.62-2.15,8.27-1.08,0,0-13.02,4.87-13.49,15.95Z"/><path class="cls-6" d="M46.19,119.34c.28,.33-1.7-4.32-.48-5.24,1.4-1.06,6.55,2.57,6.55,2.57-2.85-2.2-5.78-4.68-8.72-7.48-10.04-9.55-14.02-20.37-21.51-28.14"/><path class="cls-6" d="M95.27,15.82s-7.29-14.15-27.52-10.17-20.8,9.09-30.46,8.15-13.07,.38-16.29,4.17,2.46-2.27,7.96-1.33c5.49,.95,18.37,2.84,23.87-3.22,5.5-6.06,17.34-7.39,24.12-3.22,6.77,4.17,5.88,6.34,12.33,7.2,3.55,.47,6-1.58,6-1.58Z"/><path class="cls-6" d="M99.62,16.45s38.27,23.49,22.93,57.79c0,0-2.27,2.67-.76,7.21,0,0-4.74-3.61-2.27-8.72,0,0,7.39-13.26,1.52-24.82,0,0-9.09-21.03-21.41-31.45Z"/><path class="cls-6" d="M103.49,88.73s-.11,5.97-1.09,9.32c-1.26,4.35-5.11,9.81-4.59,9.98s4.64-4.32,5.6-8.28c1.49-6.13,2.19-10.84,.08-11.03Z"/><path class="cls-6" d="M114.1,89.02s-2.24-5.53-2.66-9c-.55-4.5,.85-11.03,.3-10.98s-2.57,5.8-1.9,9.81c1.04,6.22,2.24,10.83,4.26,10.18Z"/><path class="cls-6" d="M107.71,83.78s.13,4.93,3.28,7.45c0,0-1.14,7.47-3.41,9.54,0,0-3.16,1.7-3.28,4.1,0,0-1.14-3.38,2.78-6.49,0,0,1.77-1.97,1.77-4.88,0,0-4.67-6.82-1.14-9.73Z"/><path class="cls-6" d="M25.73,20.81S3.94,37.86,4.89,58.51c0,0,15.54-32.16,26.53-39.29,0,0-3.98-.5-5.68,1.58Z"/><path class="cls-6" d="M7.78,60.5c-.2,3.02-.15,7.63,1.46,12.88,.31,1.01,1.79,3.96,4.74,9.85,0,0,6.05,12.08,9.72,12.81,.12,.02,1.04,.18,1.04,.42,0,.18-.47,.31-.47,.31-2.84-5.54-5.69-11.38-8.48-17.51-2.94-6.44-5.59-12.71-8-18.76Z"/><path class="cls-6" d="M95.55,31.42s20.08,14.5,20.65,21.93c0,0-3.13-19.95-13.64-29.61,0,0,4.97,8.53,4.8,11.84,0,0-6.51-5.68-11.82-4.17Z"/><path class="cls-6" d="M87.05,36.28s18.03,6.61,21.2,17.49c0,0-2.18,5.92,3.13,7.69,0,0,3.69,1.26,3.13,5.93,0,0,0-9.17-3.13-9.17,0,0,2.65-5.78-2.75-9.95,0,0-13.22-11.87-21.58-12Z"/><path class="cls-6" d="M93.56,25.83s-20.92,1.04-26.76-1.14c0,0-19,1.89-22.6,5.97,0,0-16.86,18.57-16.48,23.59,0,0,16.39-20.56,19.61-19.33,0,0,13.55-5.97,20.37-5.02,0,0,26.91,2.27,25.86-4.07Z"/><path class="cls-6" d="M40.98,24.88s20.84-4.74,22.74-8.43c0,0,5.02-4.93,9.28,.57,0,0,19.8,9.47,22.26,3.98,0,0-17.54,1-21.11-7.95-.08-.19-.14-.38-.21-.58-3.03-9.57-25.67,9.09-22.64,5.78,0,0-8.15,4.05-12.41,2.78,0,0-18.95,22.89-19.33,35.02"/><path class="cls-6" d="M115.67,90.85s2.91-.76,2.53-7.2l-.38-6.44h0s-1.01-3.86,1.64-9.32c2.65-5.46,3.03-11.52,.88-16.2-2.15-4.67,1.39,9.32-3.03,17.99s-.76,9.55-.25,10.69c.51,1.14-.76,9.73-1.39,10.49Z"/><path class="cls-6" d="M23.83,60.12s-5.49,1.99-2.84,8.9,4.12,3.88,4.48,9.19-.78,.78-6.94-7.66,4.45-11.09,5.31-10.43Z"/><path class="cls-6" d="M12.94,65.9s-9.09-9,2.37-20.37c0,0,12.13-19.89,17.91-23.68,0,0-12.88,18.66-12.98,22.36,0,0-8.34,7.39-7.29,21.69Z"/><path class="cls-6" d="M19.57,56.05s18.57-33.06,21.41-31.17"/><path class="cls-6" d="M22.03,81.06c9.09,20.18,15.82,28.33,24.16,38.28"/><path class="cls-6" d="M33.5,65.78s-7.29-17.31,12.79-22.14c0,0-14.68,5.06-12.79,22.14Z"/><path class="cls-25" d="M75.66,265.45c-1.31,8.31-2.16,16.9-.93,25.26,.48,2.74,1.23,5.49,2.73,7.74,1.2,1.52,2.3,3.68,2.97,5.66,.67,2.02,.98,4.2,.73,6.31-.09-1.05-.19-2.09-.46-3.1-.72-3.01-2.21-5.86-4.1-8.28-5.07-7.77-2.98-24.96-.95-33.59h0Z"/><path class="cls-28" d="M113.16,374.69l-.06-.05c.06,1.68,.08,1.41,.06,.05Z"/><g><path class="cls-17" d="M122.62,356.35c-2.11,1.42-4.98,2.45-7.66,.43-2.57-1.94-6.75-.77-7.38,2.04-.34,1.54-.46,3.43-.15,5.73,.07,.51,.02,1.03-.16,1.52-1.12,2.98-4.97,14.52-.02,20.75,6.13,7.72,.86,0,.86,0,0,0,2.63,4.17,6.21,10.66,0,0,10.11,20.3,25.77,19.3,4.64-.3,7.36-.6,11.86-1.74,8.51-2.16,11.07-10.12,11.68-12.46,.39-1.08,6.19-15.27-28.67-30.35-1.53-.66-2.45-1.99-2.4-3.41,.06-1.51-.19-3.63-1.48-5.91-.24-.42-.36-.87-.38-1.34-.05-.81-.28-2.27-1.25-3.99-1.22-2.15-4.61-2.74-6.84-1.23Z"/><path class="cls-2" d="M125.21,356.5c-2.48,.1-4.64,4.68-12.39,.21-.35-.2-2.59,.12-3.58,1.15-.69,.72-2.1,3.23-.6,5.19,.2,.26,1.74-.33,2.11-.36,.8-.07,2.34-.17,4.09-.16,1.24,0,1.26,1.53,.02,1.57l-2.87-.37c-.33,.01-2.78,.27-2.94,.51-1.13,1.66-3.92,9.83-2.85,18.52,.03,.11,1.74,3.15,1.83,3.24,.95,.96,6.55,7.07,10,14.69,.01,.03,4.32,5.72,4.34,5.75,.5,.76,5.02,5.54,9.71,7.66,3.19,1.45,11.02,.78,11.2,.77,5.87-.42,11.55-1.74,17.58-8.26,0,0,13.53-17.74-27.88-34.61-.24-.1-1.06-2.19-1.32-2.13-1.14,.25-5.55,.99-8.26,2.17-1.06,.46-2.24,.05-1.24-.51,1.39-.78,3.45-1.53,6.48-2.12,1.69-.22,2.86-.18,2.98-.35,.68-1.02-.19-1.94-.13-2.64,.05-.62-2.25-.1-2.9,.22-2.47,1.22-5.91,1.86-9.23,1.95l-3.5,.84c-.87-.32-.7-1.38,.24-1.5,2.5-.31,13.81-1.25,14.54-3.52,.14-.43-.65-.98-.85-3.15-.34-3.68-1.73-3.68-2.63-4.08-.74-.33-.3-.76-1.97-.69Z"/></g><g><path class="cls-17" d="M76.64,332.72s-9.05,9.3-14.83,.3c0,0-5.61-1.33-5.43,5.3,0,0-8.51-.29-10.39,4.42,0,0-35.93-6.34-38.14,16.96,0,0-.51,14.01,20.09,12.83,0,0,15.15-.29,27.93-6.05,0,0,.85-.29,14.98-3.24,0,0,18.22-5.16,8-23.45,0,0,2.55-3.69-2.21-7.08Z"/><path class="cls-2" d="M80.13,343.06c1.47,3.43,4.81,16.47-14.8,19.09-.04,0-.07,0-.11,.01-.73,.04-9.53,.65-20.04,5.42-.04,.02-.08,.03-.13,.05-1.31,.35-13.04,4.58-24.05,2.71-5.28-.89-7.38-2.85-7.45-2.89-3.15-2.3-10.78-15.84,8.18-23.49,.04-.02,19.32-4.78,31.69,2.88,.76,.47,1.72-.32,1.19-.99-.58-.73-4.59-2.01-6.28-3.47-.93-.8,.68-2.76,3.36-3.41s4.85-.48,4.94-.43c.7,.45,4.43,4.05,7.79,5.15,.88,.29,1.71-1.45,.85-1.23-1.14,.3-6.28-2.4-7.53-4.94-.33-.67-.29-4.89,3.49-4.26,2.96,3.44,6.23,7.39,15.71,.34,.8-.5,3.02,3.02,1.45,4.68-.03,.03-6.51,1.01-6.55,1.03-.75,.33-.38,.55,.46,.59,1.51,.06,3.45-.68,5.32-.64,.46,.01,2.35,3.41,2.51,3.79Z"/></g></g></g></g></g></svg>